<svg width="158" height="114" viewBox="0 0 158 114" fill="none" xmlns="http://www.w3.org/2000/svg">
<path d="M121.042 79.882C120.16 79.2792 114.409 73.4547 113.424 72.2081C113.574 71.7641 113.991 71.5995 114.335 71.3789C118.078 68.9915 118.493 63.4404 116.408 60.3121C115.672 59.2099 114.658 58.3222 113.468 57.7394C111.992 56.9963 110.402 56.5072 108.763 56.2928C107.505 56.1288 106.239 56.0306 104.971 55.9988C102.912 55.9459 100.831 55.9547 98.7638 55.9782C98.3433 56.0016 97.9227 55.9326 97.5316 55.7762C97.1405 55.6197 96.7883 55.3796 96.4999 55.0727C94.0184 52.5 91.5016 49.9685 88.9936 47.4282C88.8025 47.2341 88.6437 47.0107 88.4938 46.8401C88.6966 46.3285 89.0818 46.4961 89.3758 46.4932C92.4307 46.4755 95.4885 46.4785 98.5463 46.4667C100.331 46.4667 102.119 46.4667 103.906 46.4079C106.074 46.3562 108.196 45.7672 110.081 44.6938C111.774 43.7265 113.021 42.3799 113.632 40.4864C114.189 38.7698 114.214 36.9249 113.703 35.194C113.211 33.501 112.076 32.0673 110.542 31.1983C108.789 30.1736 106.818 29.58 104.791 29.4666C104.23 29.4195 103.665 29.4195 103.101 29.4166H88.4291C88.0998 29.4166 87.7705 29.4166 87.4412 29.4166C86.6532 29.4607 86.4915 29.6342 86.4533 30.4662C86.4533 30.7602 86.4533 31.0307 86.4533 31.313C86.4533 35.1686 86.4533 39.0241 86.4533 42.8797V44.2116C86.4057 44.2575 86.3486 44.2923 86.286 44.3136C86.2235 44.3349 86.157 44.3422 86.0913 44.3349C86.0256 44.3276 85.9624 44.3059 85.906 44.2714C85.8497 44.2369 85.8016 44.1904 85.7653 44.1352C85.2341 43.602 84.7058 43.0669 84.1805 42.5298C81.6167 39.9072 79.0763 37.261 76.4831 34.6678C76.1241 34.3309 75.8434 33.9193 75.661 33.4621C75.4786 33.0048 75.3989 32.513 75.4276 32.0216C75.4717 28.3552 75.4276 24.6888 75.4276 21.0194C75.4276 20.5578 75.457 20.0932 75.4717 19.7287C75.9303 19.3317 76.3537 19.37 76.7859 19.37C77.8209 19.37 78.8441 19.3905 79.8878 19.3935C86.8012 19.4052 93.7136 19.416 100.625 19.4258C102.507 19.4258 104.385 19.4611 106.267 19.4905C109.759 19.5131 113.202 20.3168 116.343 21.8427C118.13 22.6944 119.759 23.8449 121.159 25.2445C123.431 27.5363 124.848 30.5373 125.176 33.7475C125.391 35.6652 125.304 37.605 124.917 39.4955C124.35 42.5287 122.761 45.2763 120.415 47.2812C119.533 48.0515 118.542 48.6954 117.593 49.3834C117.255 49.6274 116.89 49.8362 116.549 50.0538C116.596 50.4624 116.917 50.486 117.137 50.5859C117.822 50.88 118.54 51.1328 119.21 51.468C120.177 51.9502 121.147 52.4383 122.059 53.0116C125.819 55.3637 128.101 58.7479 128.674 63.1729C129.087 65.9756 128.86 68.8353 128.01 71.5377C126.875 74.9924 124.679 77.5974 121.674 79.5674C121.47 79.6863 121.259 79.7914 121.042 79.882Z" fill="black"/>
<path d="M33.9739 82.384L75.4129 40.0865C76.0009 40.3158 76.2949 40.7539 76.636 41.1097C81.0169 45.5709 85.3938 50.0361 89.7669 54.5052L115.826 81.1051C116.214 81.5049 116.587 81.9165 117.064 82.4252C116.842 82.5349 116.609 82.6206 116.37 82.681C116.042 82.7104 115.713 82.7193 115.385 82.7075C112.562 82.7075 109.743 82.6575 106.92 82.7075C106.385 82.7346 105.85 82.6433 105.354 82.44C104.858 82.2367 104.413 81.9265 104.05 81.5314C94.8946 72.1385 85.7202 62.7632 76.5272 53.4055C76.2332 53.1115 75.9392 52.794 75.5893 52.4176C75.3952 52.5823 75.1836 52.7322 75.0013 52.9175C65.6573 62.4535 56.3183 71.9954 46.9842 81.5431C46.6432 81.9285 46.2213 82.2337 45.7486 82.437C45.2759 82.6403 44.7641 82.7367 44.2498 82.7192C41.3361 82.6839 38.4194 82.7192 35.5057 82.7192C35.05 82.7016 34.5649 82.8104 33.9739 82.384Z" fill="black"/>
<path d="M31.3453 96.6705C31.7452 96.8969 32.0274 97.038 32.2891 97.2085C32.8034 97.542 33.2257 97.9994 33.5171 98.5388C33.8085 99.0781 33.9597 99.682 33.9568 100.295C33.9538 100.908 33.7969 101.51 33.5004 102.047C33.2038 102.583 32.7772 103.037 32.2597 103.365C31.5135 103.87 30.6402 104.154 29.7399 104.186C27.2967 104.23 24.8504 104.186 22.4071 104.186C22.3689 104.186 22.3307 104.139 22.1895 104.044C22.14 103.809 22.1085 103.57 22.0955 103.33C22.0955 99.1432 22.0955 94.9573 22.0955 90.7725C22.1089 90.5202 22.1364 90.2689 22.1778 90.0198C22.4467 89.9565 22.7199 89.9133 22.9952 89.8904C24.8769 89.8904 26.7586 89.8904 28.6374 89.8904C29.5347 89.8778 30.4249 90.052 31.2512 90.402C33.7915 91.5046 34.162 94.483 31.9745 96.2001C31.804 96.3294 31.6246 96.4588 31.3453 96.6705ZM24.8769 101.98C26.347 101.98 27.6465 102.007 28.9549 101.963C29.3749 101.924 29.7823 101.799 30.1516 101.595C30.4511 101.452 30.7019 101.223 30.8728 100.938C31.0437 100.654 31.1272 100.325 31.113 99.9929C31.1199 99.661 31.0305 99.3342 30.8557 99.0519C30.6809 98.7697 30.4282 98.5441 30.1281 98.4023C29.6271 98.1384 29.0682 98.004 28.5021 98.0112C27.5642 98.0112 26.6263 98.0112 25.6854 98.0112C25.4061 98.0347 25.1283 98.0739 24.8534 98.1288C24.7092 99.409 24.7151 100.702 24.871 101.98H24.8769ZM24.8534 95.8061C25.8295 95.8061 26.6675 95.8061 27.4995 95.8061C27.9204 95.8327 28.3429 95.818 28.7609 95.762C29.1724 95.6929 29.5655 95.5409 29.9164 95.3151C30.1161 95.17 30.2813 94.9827 30.4002 94.7664C30.5191 94.5501 30.5888 94.3102 30.6043 94.0638C30.6197 93.8175 30.5806 93.5708 30.4896 93.3413C30.3986 93.1119 30.2581 92.9054 30.0781 92.7365C29.7658 92.4552 29.3788 92.2704 28.9637 92.2043C27.6093 92.0515 26.2417 92.0574 24.8886 92.222C24.6622 93.3892 24.7475 94.4889 24.8475 95.7972L24.8534 95.8061Z" fill="black"/>
<path d="M113.271 94.7976C113.362 92.7394 113.241 90.9753 113.362 89.1112C113.806 89.0789 114.168 89.0407 114.538 89.0289C114.909 89.0171 115.285 89.0289 115.585 89.0289C116.04 89.4288 115.926 89.8786 115.926 90.2844C115.926 93.104 115.926 95.9266 115.926 98.7492C115.926 100.113 115.926 101.478 115.926 102.842C115.926 103.254 115.879 103.665 115.846 104.147C115.038 104.285 114.213 104.291 113.403 104.165C113.344 103.774 113.294 103.412 113.23 102.962C113.051 103.024 112.881 103.109 112.724 103.215C111.633 104.218 110.328 104.447 108.902 104.306C108.002 104.248 107.139 103.93 106.416 103.392C105.694 102.853 105.142 102.117 104.83 101.272C104.172 99.7382 104.143 98.0081 104.747 96.4529C105.02 95.7105 105.465 95.0434 106.046 94.5065C106.626 93.9696 107.326 93.5781 108.088 93.3643C108.849 93.1505 109.65 93.1204 110.426 93.2766C111.201 93.4327 111.928 93.7706 112.548 94.2624L113.271 94.7976ZM106.973 98.7227C107.038 99.2188 107.136 99.7099 107.267 100.193C107.467 100.809 107.858 101.345 108.383 101.724C108.908 102.102 109.54 102.305 110.188 102.301C110.835 102.297 111.465 102.087 111.985 101.702C112.505 101.316 112.89 100.776 113.083 100.158C113.422 99.2205 113.393 98.1893 113 97.2732C112.779 96.7143 112.397 96.2335 111.903 95.8916C111.408 95.5497 110.824 95.3621 110.223 95.3523C109.622 95.3426 109.032 95.5112 108.526 95.8369C108.021 96.1625 107.624 96.6306 107.385 97.1821C107.209 97.6845 107.071 98.1995 106.973 98.7227Z" fill="black"/>
<path d="M83.6219 92.0543C81.2697 92.2366 79.0205 92.0308 76.7095 92.1896C76.3508 93.448 76.5684 94.6946 76.5507 96.0118C76.8674 96.0925 77.1898 96.1485 77.5151 96.1794C78.8294 96.1971 80.1466 96.1794 81.4609 96.1941C81.9225 96.1941 82.3841 96.2323 82.8633 96.2529C83.1779 96.9527 82.9927 97.5937 83.028 98.2905C82.6904 98.3626 82.3487 98.4136 82.0048 98.4434C80.6405 98.4581 79.2792 98.4434 77.9179 98.4434C77.5063 98.4434 77.0947 98.4963 76.6095 98.5316C76.4508 99.5224 76.5449 100.457 76.5213 101.384C76.5446 102.289 76.5201 103.195 76.4478 104.097C75.5658 104.321 74.7572 104.2 73.9663 104.174C73.737 102.88 73.734 91.2223 73.9663 89.9551C75.5246 89.761 77.1123 89.8874 78.6941 89.8727C80.276 89.858 81.8754 89.8316 83.5043 89.8992C83.7954 90.6048 83.6395 91.2517 83.6219 92.0543Z" fill="black"/>
<path d="M45.573 104.174H43.1591L42.9062 103.292C42.6977 103.375 42.4953 103.474 42.3005 103.586C41.7222 103.952 41.0767 104.199 40.4018 104.313C39.7269 104.427 39.0361 104.406 38.3695 104.25C36.3849 103.862 35.2647 102.122 35.7233 100.134C35.8112 99.7425 35.984 99.375 36.2293 99.0575C36.4747 98.74 36.7867 98.4802 37.1434 98.2964C37.7608 97.9478 38.4546 97.757 39.1634 97.7407C39.916 97.7201 40.6687 97.726 41.4214 97.7113C41.883 97.7113 42.3476 97.676 42.7651 97.6613C43.1502 97.1938 42.9356 96.7969 42.7857 96.4146C42.6963 96.1965 42.5631 95.9991 42.3941 95.8347C42.2251 95.6703 42.0242 95.5424 41.8036 95.4591C41.105 95.1583 40.3238 95.1085 39.5926 95.318C38.8282 95.5355 38.0843 95.8295 37.2728 96.1118C36.8259 95.7943 36.6642 95.2297 36.3643 94.6799C36.5564 94.4947 36.765 94.3274 36.9876 94.1801C38.5797 93.3358 40.4014 93.0266 42.1829 93.298C44.3322 93.5774 45.5494 94.9416 45.5818 97.1026C45.5906 99.4019 45.573 101.701 45.573 104.174ZM42.8709 99.4695C41.7405 99.3872 40.6055 99.3872 39.475 99.4695C39.3352 99.4878 39.1981 99.5223 39.0663 99.5724C38.7428 99.6556 38.4651 99.8633 38.2939 100.15C38.1227 100.437 38.0716 100.78 38.1519 101.104C38.1943 101.384 38.3181 101.644 38.508 101.853C38.6979 102.063 38.9453 102.211 39.2192 102.28C39.9011 102.483 40.63 102.46 41.2979 102.216C41.8457 102.058 42.3197 101.711 42.6357 101.237C42.8116 100.982 42.9239 100.689 42.9633 100.382C43.0027 100.075 42.968 99.7632 42.8621 99.4724L42.8709 99.4695Z" fill="black"/>
<path d="M102.248 104.18H99.84C99.7772 103.858 99.735 103.533 99.7136 103.207C99.6989 101.701 99.7136 100.199 99.6959 98.6933C99.6908 98.1782 99.6277 97.6654 99.5078 97.1644C99.4242 96.8192 99.2494 96.5028 99.0016 96.2483C98.7539 95.9939 98.4423 95.8106 98.0994 95.7179C96.4088 95.168 94.7535 96.1736 94.4124 97.9906C94.3511 98.4091 94.3265 98.8321 94.3389 99.2549C94.3389 100.478 94.3389 101.701 94.3389 102.921C94.3389 103.292 94.3036 103.659 94.2831 104.097C93.4657 104.327 92.6836 104.224 91.8309 104.174C91.7506 103.915 91.6965 103.649 91.6692 103.38C91.6575 100.322 91.6575 97.2664 91.6692 94.2125C91.6692 93.9861 91.7133 93.7567 91.7398 93.4804C92.5395 93.1599 93.3216 93.3334 94.186 93.3451L94.48 94.8152C94.727 94.627 94.9446 94.48 95.1416 94.3124C96.4823 93.1775 98.0318 93.0011 99.6548 93.4304C101.178 93.8244 101.983 94.9328 102.269 96.4411C102.32 96.7659 102.341 97.0945 102.333 97.4232C102.333 99.399 102.333 101.374 102.333 103.348C102.319 103.565 102.283 103.789 102.248 104.18Z" fill="black"/>
<path d="M129.074 99.6283C127.737 99.7724 126.428 99.6812 125.123 99.6988C123.817 99.7165 122.591 99.6988 121.224 99.6988C121.249 99.9986 121.308 100.295 121.4 100.581C122.174 102.189 123.926 102.663 125.625 102.083C126.202 101.839 126.758 101.551 127.29 101.222C127.805 101.556 128.241 102 128.566 102.521C127.771 103.41 126.698 104.002 125.523 104.2C124.597 104.39 123.642 104.395 122.715 104.215C120.704 103.812 119.339 102.648 118.684 100.687C118.343 99.6511 118.29 98.5423 118.531 97.479C118.989 95.3591 120.28 93.9949 122.388 93.4215C123.394 93.1559 124.447 93.1317 125.464 93.351C126.284 93.4817 127.048 93.8503 127.661 94.4111C128.274 94.9718 128.71 95.7002 128.913 96.5058C129.252 97.512 129.308 98.5924 129.074 99.6283ZM126.772 97.773C126.782 97.3091 126.66 96.8518 126.422 96.4539C126.183 96.056 125.837 95.7336 125.423 95.5238C125.061 95.33 124.663 95.2134 124.255 95.1815C123.846 95.1497 123.435 95.2032 123.048 95.3386C122.66 95.4741 122.306 95.6886 122.006 95.9685C121.706 96.2484 121.468 96.5876 121.306 96.9645C121.174 97.2585 121.051 97.579 121.306 97.8848C122.938 98.0847 125.761 98.0376 126.763 97.773H126.772Z" fill="black"/>
<path d="M46.6343 107.361L47.6339 105.667C47.928 105.756 48.1808 105.838 48.4366 105.911C49.1628 106.114 49.8538 106.097 50.3654 105.462C50.877 104.827 51.1328 104.153 50.7417 103.265C49.5098 100.478 48.3631 97.6525 47.187 94.8387C47.0106 94.4154 46.8577 93.9832 46.6813 93.5157C47.14 93.2216 47.5634 93.3304 47.9662 93.3128C48.369 93.2951 48.713 93.3128 48.9805 93.3128C49.5098 93.6068 49.5686 94.0567 49.7097 94.4359C50.4448 96.3147 51.1533 98.2023 51.8825 100.084C52.0119 100.419 52.2001 100.731 52.4529 101.245C53.5496 98.5463 54.2993 95.9531 55.299 93.4275C56.1165 93.2646 56.9575 93.2577 57.7776 93.4069C57.7377 93.6925 57.6758 93.9746 57.5924 94.2507C56.0909 98.0436 54.5816 101.835 53.0645 105.626C53.0321 105.715 52.9851 105.797 52.9469 105.882C51.7473 108.493 49.157 109.155 46.6343 107.361Z" fill="black"/>
<path d="M65.9367 103.536C65.4172 103.896 64.8294 104.147 64.2095 104.271C63.5896 104.396 62.9507 104.393 62.3321 104.262C61.8143 104.191 61.3307 103.963 60.9465 103.608C60.5622 103.254 60.2957 102.791 60.1828 102.28C60.0739 101.826 60.0177 101.36 60.0152 100.893C59.9946 99.5283 60.0152 98.167 60.0152 96.8027C60.0152 96.4411 59.9593 96.0765 59.9241 95.6502L58.6186 95.4591C58.4804 94.9296 58.4743 94.3743 58.601 93.842L59.88 93.6744C60.174 92.7335 59.88 91.7691 60.1328 90.8312C60.9102 90.7004 61.7025 90.6825 62.485 90.7783C62.5628 91.0836 62.6188 91.3941 62.6526 91.7074C62.6878 92.2954 62.682 92.9158 62.6908 93.5215C63.6993 94.0096 64.7283 93.5391 65.7133 93.9037C65.8593 94.3904 65.8714 94.9073 65.7486 95.4003C64.7695 95.7472 63.7404 95.3297 62.7819 95.7266C62.7267 96.0013 62.6894 96.2792 62.6702 96.5587C62.6702 97.8289 62.6467 99.0961 62.6702 100.366C62.7025 102.016 63.1524 102.345 64.7754 101.96C64.9136 101.927 65.0429 101.875 65.2193 101.819C65.7221 102.224 65.6927 102.868 65.9367 103.536Z" fill="black"/>
<path d="M134.12 104.171C133.346 104.259 132.565 104.259 131.791 104.171C131.725 104.018 131.677 103.859 131.65 103.695C131.65 100.407 131.65 97.1213 131.65 93.8361C131.677 93.6812 131.726 93.5308 131.794 93.3892C132.523 93.2098 133.264 93.3333 134.084 93.3128C134.167 93.8537 134.243 94.3359 134.32 94.8475C134.828 94.8093 134.955 94.3007 135.307 94.1066C135.719 93.8832 136.119 93.6421 136.545 93.4509C136.921 93.2549 137.354 93.2027 137.765 93.3039C138.03 94.1536 138.03 94.1536 137.898 95.4238C137.624 95.4973 137.31 95.5914 137.016 95.6561C135.275 96.0236 134.331 97.088 134.246 98.8756C134.196 99.9076 134.246 100.934 134.228 101.975C134.22 102.68 134.311 103.383 134.12 104.171Z" fill="black"/>
<path d="M85.7859 93.3774H88.1381C88.2252 93.6388 88.2833 93.909 88.3116 94.1831C88.3233 97.233 88.3233 100.283 88.3116 103.333C88.2883 103.621 88.2411 103.906 88.1704 104.186H85.8536C85.7775 103.972 85.7262 103.75 85.7007 103.524C85.7007 100.333 85.7007 97.1419 85.7007 93.9508C85.717 93.7581 85.7455 93.5666 85.7859 93.3774Z" fill="black"/>
<path d="M72.4286 78.3442C72.9901 78.3442 73.5576 78.3236 74.1192 78.3442C74.2148 78.3348 74.3113 78.3469 74.4017 78.3797C74.492 78.4125 74.5739 78.465 74.6413 78.5335C74.7087 78.602 74.7599 78.6848 74.7911 78.7756C74.8224 78.8665 74.8329 78.9632 74.8219 79.0587C74.8434 80.2348 74.8434 81.4109 74.8219 82.5869C74.8301 82.6827 74.8168 82.7791 74.7829 82.869C74.7491 82.959 74.6955 83.0402 74.6261 83.1068C74.5567 83.1733 74.4734 83.2235 74.3821 83.2536C74.2908 83.2837 74.1939 83.293 74.0986 83.2808C72.9225 83.3024 71.7464 83.3024 70.5704 83.2808C70.4866 83.2849 70.4028 83.271 70.3248 83.2401C70.2469 83.2091 70.1764 83.1618 70.1182 83.1014C70.06 83.041 70.0154 82.9688 69.9874 82.8897C69.9594 82.8106 69.9486 82.7264 69.9559 82.6428C69.9363 81.4197 69.9363 80.1975 69.9559 78.9764C69.9521 78.8923 69.9665 78.8083 69.9979 78.7302C70.0294 78.6522 70.0773 78.5817 70.1384 78.5238C70.1994 78.4658 70.2722 78.4216 70.3518 78.3942C70.4314 78.3667 70.516 78.3567 70.5998 78.3648C71.2113 78.3413 71.8229 78.3648 72.4344 78.3648L72.4286 78.3442Z" fill="black"/>
<path d="M70.2176 77.1006C70.0648 76.8066 69.9854 76.7243 69.9824 76.6419C69.9648 75.4276 69.9383 74.2133 69.9589 72.999C69.9473 72.9033 69.9571 72.8062 69.9876 72.7147C70.018 72.6231 70.0684 72.5395 70.135 72.4698C70.2017 72.4001 70.2829 72.346 70.373 72.3114C70.463 72.2768 70.5596 72.2627 70.6557 72.2699C71.8318 72.2405 73.0079 72.2493 74.1663 72.2699C74.2501 72.2702 74.3329 72.2874 74.4099 72.3203C74.4869 72.3532 74.5566 72.4013 74.6147 72.4616C74.6728 72.5219 74.7182 72.5932 74.7483 72.6714C74.7783 72.7496 74.7924 72.833 74.7896 72.9167C74.819 74.13 74.819 75.3453 74.7896 76.5625C74.7865 76.7071 74.7264 76.8445 74.6222 76.9448C74.5181 77.0451 74.3785 77.1 74.2339 77.0977C72.8932 77.1594 71.5407 77.1565 70.2176 77.1006Z" fill="black"/>
<path d="M80.8757 78.5794C80.9752 79.9297 80.9909 81.2847 80.9228 82.6369C80.9304 82.7205 80.92 82.8047 80.8924 82.884C80.8648 82.9632 80.8205 83.0356 80.7626 83.0963C80.7047 83.157 80.6344 83.2047 80.5566 83.236C80.4787 83.2673 80.395 83.2816 80.3112 83.2779C79.092 83.2955 77.8718 83.2955 76.6507 83.2779C76.5786 83.2787 76.5072 83.265 76.4406 83.2375C76.374 83.21 76.3137 83.1694 76.2632 83.1181C76.2126 83.0668 76.173 83.0057 76.1466 82.9387C76.1203 82.8717 76.1077 82.8 76.1097 82.728C76.092 81.4638 76.092 80.1975 76.1097 78.9293C76.1097 78.5677 76.3566 78.3677 76.783 78.3648C78.0032 78.3648 79.2233 78.3648 80.4406 78.3942C80.5229 78.3825 80.6052 78.453 80.8757 78.5794Z" fill="black"/>
<path d="M80.8551 77.0329C79.2292 77.2005 77.7943 77.1123 76.3566 77.1152C76.2449 76.8741 76.1037 76.7124 76.1008 76.5448C76.0743 75.4246 76.0508 74.3044 76.0773 73.1842C76.092 72.5109 76.339 72.2727 77.0328 72.2433C78.2413 72.1963 79.4526 72.0934 80.7081 72.3639C80.8085 72.6176 80.8795 72.882 80.9198 73.1519C80.9928 74.4454 80.9712 75.7425 80.8551 77.0329Z" fill="black"/>
<path d="M88.4408 90.108C88.4519 90.306 88.4217 90.5041 88.3523 90.6899C88.283 90.8756 88.1758 91.045 88.0377 91.1873C87.8995 91.3296 87.7334 91.4417 87.5498 91.5165C87.3661 91.5914 87.169 91.6273 86.9707 91.6222C86.5808 91.6342 86.2021 91.4909 85.9179 91.2238C85.6336 90.9566 85.4671 90.5875 85.4551 90.1976C85.443 89.8077 85.5863 89.429 85.8534 89.1448C86.1206 88.8605 86.4897 88.694 86.8796 88.682C87.0781 88.6621 87.2785 88.6843 87.4679 88.7471C87.6572 88.81 87.8312 88.9119 87.9785 89.0465C88.1258 89.181 88.2431 89.3451 88.3227 89.528C88.4024 89.7108 88.4426 89.9085 88.4408 90.108Z" fill="black"/>
</svg>
