<svg width="20" height="21" viewBox="0 0 20 21" fill="none" xmlns="http://www.w3.org/2000/svg">
<path d="M19.3299 17.035C19.2043 17.598 18.8929 18.1024 18.4459 18.467C17.9575 18.9623 17.3756 19.3557 16.7339 19.6242C16.0922 19.8927 15.4035 20.0309 14.7079 20.031H14.3829C12.9229 19.9517 11.4934 19.5822 10.1779 18.944H10.1679C9.86291 18.802 9.54791 18.66 9.24291 18.487C7.70732 17.626 6.29885 16.5558 5.05791 15.307C3.44747 13.7944 2.12592 12.0011 1.15791 10.015C0.643459 8.92655 0.300084 7.76521 0.139911 6.572C-0.0956275 5.32301 0.0460585 4.03217 0.546911 2.864C0.863106 2.33698 1.24929 1.85526 1.69491 1.432C1.89542 1.20525 2.14057 1.02232 2.41502 0.894643C2.68947 0.766969 2.98731 0.697303 3.28991 0.690002C3.61901 0.726372 3.93761 0.827753 4.22721 0.98826C4.51681 1.14877 4.77164 1.3652 4.97691 1.625C5.43391 2.122 5.99191 2.64 6.44991 3.118L7.07991 3.738C7.44991 4.066 7.67891 4.524 7.71991 5.018C7.71991 5.471 7.55291 5.908 7.25191 6.247C7.05697 6.48409 6.85004 6.71106 6.63191 6.927L6.42891 7.14C6.31091 7.25 6.22091 7.386 6.16491 7.537C6.11491 7.68567 6.09491 7.838 6.10491 7.994C6.26591 8.425 6.51891 8.817 6.84491 9.142C7.35391 9.832 7.86191 10.432 8.37991 11.082C9.31686 12.1697 10.4288 13.0934 11.6699 13.815C11.7969 13.908 11.9429 13.97 12.0979 13.997C12.2319 14.007 12.3679 13.987 12.4939 13.937C12.8489 13.728 13.1639 13.46 13.4279 13.144C13.7829 12.7092 14.2926 12.4289 14.8499 12.362C15.3862 12.3694 15.8978 12.5887 16.2729 12.972C16.4759 13.144 16.6989 13.378 16.9129 13.602L17.2169 13.916L17.5319 14.221L18.0709 14.769C18.3922 15.0543 18.6936 15.3593 18.9749 15.684C19.2569 16.074 19.3839 16.557 19.3299 17.035ZM15.6839 10.076C15.4825 10.0739 15.2899 9.99297 15.1474 9.85052C15.0049 9.70806 14.924 9.51545 14.9219 9.314C14.923 8.73878 14.8104 8.16901 14.5908 7.63737C14.3712 7.10573 14.0487 6.62268 13.642 6.21594C13.2352 5.80919 12.7522 5.48675 12.2205 5.26711C11.6889 5.04747 11.1191 4.93495 10.5439 4.936C10.3418 4.936 10.148 4.85572 10.0051 4.71282C9.86219 4.56992 9.78191 4.3761 9.78191 4.174C9.78191 3.97191 9.86219 3.77809 10.0051 3.63519C10.148 3.49228 10.3418 3.412 10.5439 3.412C11.3193 3.41082 12.0873 3.56267 12.8039 3.85885C13.5205 4.15504 14.1716 4.58973 14.7199 5.13802C15.2682 5.6863 15.7029 6.3374 15.9991 7.054C16.2952 7.7706 16.4471 8.53861 16.4459 9.314C16.4462 9.41414 16.4266 9.51335 16.3884 9.60592C16.3502 9.69849 16.2941 9.7826 16.2233 9.85341C16.1525 9.92422 16.0684 9.98034 15.9758 10.0185C15.8833 10.0567 15.7841 10.0763 15.6839 10.076Z" fill="black"/>
</svg>
