<svg width="28" height="28" viewBox="0 0 28 28" fill="none" xmlns="http://www.w3.org/2000/svg">
<path d="M23.3501 14.875H22.7499V4.49837C22.7487 3.30584 22.2745 2.16246 21.4314 1.31913C20.5882 0.475799 19.4449 0.00138988 18.2524 0C16.1165 0 14.3315 1.49975 13.8756 3.5H12.256C11.7903 3.5 11.3436 3.68502 11.0142 4.01436C10.6849 4.34369 10.4999 4.79037 10.4999 5.25612C10.4999 5.73562 10.8901 6.125 11.3696 6.125H17.506C17.7364 6.12477 17.9572 6.03315 18.1201 5.87026C18.283 5.70736 18.3747 5.48649 18.3749 5.25612C18.375 5.02555 18.3297 4.79721 18.2415 4.58415C18.1534 4.37109 18.0241 4.17749 17.8611 4.01441C17.6981 3.85133 17.5046 3.72196 17.2915 3.63369C17.0785 3.54543 16.8502 3.5 16.6196 3.5H15.6991C16.0999 2.478 17.0904 1.75 18.2524 1.75C18.9809 1.75093 19.6794 2.04081 20.1945 2.55606C20.7095 3.0713 20.9992 3.76983 20.9999 4.49837V14.875H4.65051C4.35096 14.8833 4.06644 15.0081 3.85749 15.2229C3.64853 15.4377 3.53162 15.7255 3.53162 16.0252C3.53162 16.3249 3.64853 16.6127 3.85749 16.8275C4.06644 17.0423 4.35096 17.1671 4.65051 17.1754H5.24989V19.1249C5.25079 20.2931 5.57922 21.4377 6.19789 22.4286C6.81657 23.4196 7.70069 24.2172 8.74989 24.731V26.25C8.74989 26.7141 8.93426 27.1592 9.26245 27.4874C9.59064 27.8156 10.0358 28 10.4999 28C10.964 28 11.4091 27.8156 11.7373 27.4874C12.0655 27.1592 12.2499 26.7141 12.2499 26.25V25.375H16.5006C16.5426 25.375 16.5838 25.3698 16.6249 25.3689V26.25C16.6249 26.7141 16.8093 27.1592 17.1375 27.4874C17.4656 27.8156 17.9108 28 18.3749 28C18.839 28 19.2841 27.8156 19.6123 27.4874C19.9405 27.1592 20.1249 26.7141 20.1249 26.25V24.2104C20.9365 23.6337 21.5983 22.8711 22.0549 21.9864C22.5116 21.1017 22.7499 20.1205 22.7499 19.1249V17.1754H23.3501C23.6552 17.1754 23.9477 17.0542 24.1634 16.8385C24.3791 16.6228 24.5003 16.3302 24.5003 16.0252C24.5003 15.7201 24.3791 15.4276 24.1634 15.2119C23.9477 14.9962 23.6552 14.875 23.3501 14.875Z" fill="#5A5A5A"/>
</svg>
