<svg width="15" height="14" viewBox="0 0 15 14" fill="none" xmlns="http://www.w3.org/2000/svg">
<g clip-path="url(#clip0_1_3072)">
<path d="M13.5938 7.65624H2.34375V2.73436C2.34321 2.54901 2.38206 2.3654 2.45806 2.19415C2.53407 2.02291 2.6457 1.86743 2.78651 1.73673L2.79823 1.72579C3.01891 1.52012 3.30225 1.38305 3.60952 1.33332C3.9168 1.28359 4.23304 1.32361 4.51503 1.44792C4.24871 1.86119 4.13802 2.34568 4.20054 2.8244C4.26306 3.30312 4.4952 3.74861 4.86009 4.09007L5.18092 4.38951L4.59038 4.9407L5.25325 5.55938L5.84379 5.00822L9.11593 1.95427L9.70646 1.40311L9.04356 0.7844L8.453 1.33557L8.13217 1.03613C7.74805 0.678615 7.2417 0.458232 6.70136 0.413381C6.16102 0.368531 5.62095 0.502056 5.17526 0.790689C4.70529 0.513673 4.14834 0.394083 3.59591 0.451565C3.04349 0.509047 2.52843 0.740183 2.13536 1.107L2.12364 1.11794C1.89549 1.32971 1.7146 1.58162 1.59146 1.85908C1.46832 2.13654 1.40537 2.43404 1.40625 2.73436V7.65624H0.46875V8.53124H1.40625V9.37069C1.40626 9.44122 1.41844 9.51129 1.44234 9.5782L2.31445 12.02C2.361 12.1507 2.45049 12.2644 2.57022 12.345C2.68995 12.4256 2.83383 12.4688 2.98143 12.4687H3.35936L3.01758 13.5625H3.99413L4.33594 12.4687H10.4326L10.7842 13.5625H11.7627L11.4111 12.4687H12.0185C12.1661 12.4689 12.31 12.4256 12.4297 12.345C12.5495 12.2645 12.639 12.1507 12.6855 12.02L13.5576 9.5782C13.5815 9.5113 13.5937 9.44123 13.5938 9.37069V8.53124H14.5312V7.65624H13.5938ZM5.52305 1.65483C5.78133 1.4143 6.13129 1.27921 6.49616 1.27921C6.86102 1.27921 7.21099 1.4143 7.46927 1.65483L7.79004 1.95427L5.84388 3.77069L5.52305 3.47131C5.26534 3.23024 5.12062 2.90361 5.12062 2.56307C5.12062 2.22253 5.26534 1.8959 5.52305 1.65483ZM12.6562 9.33514L11.8496 11.5937H3.15035L2.34375 9.33514V8.53124H12.6562V9.33514Z" fill="#A5A5A5"/>
</g>
<defs>
<clipPath id="clip0_1_3072">
<rect width="15" height="14" fill="white"/>
</clipPath>
</defs>
</svg>
