<svg width="70" height="62" viewBox="0 0 70 62" fill="none" xmlns="http://www.w3.org/2000/svg">
<path d="M55.5 41.25H48.6666V48.0833H55.5M55.5 27.5833H48.6666V34.4167H55.5M62.3333 54.9167H35V48.0833H41.8333V41.25H35V34.4167H41.8333V27.5833H35V20.75H62.3333M28.1666 13.9167H21.3333V7.08333H28.1666M28.1666 27.5833H21.3333V20.75H28.1666M28.1666 41.25H21.3333V34.4167H28.1666M28.1666 54.9167H21.3333V48.0833H28.1666M14.5 13.9167H7.66665V7.08333H14.5M14.5 27.5833H7.66665V20.75H14.5M14.5 41.25H7.66665V34.4167H14.5M14.5 54.9167H7.66665V48.0833H14.5M35 13.9167V0.25H0.833313V61.75H69.1666V13.9167H35Z" fill="white"/>
</svg>
