<svg width="19" height="19" viewBox="0 0 19 19" fill="none" xmlns="http://www.w3.org/2000/svg">
<path d="M5.54167 5.54163H4.75C4.33007 5.54163 3.92735 5.70844 3.63041 6.00537C3.33348 6.30231 3.16667 6.70503 3.16667 7.12496V14.25C3.16667 14.6699 3.33348 15.0726 3.63041 15.3695C3.92735 15.6665 4.33007 15.8333 4.75 15.8333H11.875C12.2949 15.8333 12.6977 15.6665 12.9946 15.3695C13.2915 15.0726 13.4583 14.6699 13.4583 14.25V13.4583" stroke="#A5A5A5" stroke-width="2" stroke-linecap="round" stroke-linejoin="round"/>
<path d="M12.6667 3.9583L15.0417 6.3333M16.1381 5.21309C16.4499 4.90129 16.6251 4.47841 16.6251 4.03746C16.6251 3.59652 16.4499 3.17363 16.1381 2.86184C15.8263 2.55004 15.4034 2.37488 14.9625 2.37488C14.5216 2.37488 14.0987 2.55004 13.7869 2.86184L7.125 9.49996V11.875H9.5L16.1381 5.21309Z" stroke="#A5A5A5" stroke-width="2" stroke-linecap="round" stroke-linejoin="round"/>
</svg>
