<svg width="27" height="25" viewBox="0 0 27 25" fill="none" xmlns="http://www.w3.org/2000/svg">
    <path
        d="M13.5296 20.7333L13.3956 20.8667L13.2483 20.7333C6.88536 14.9867 2.67913 11.1867 2.67913 7.33333C2.67913 4.66667 4.68847 2.66667 7.3676 2.66667C9.43053 2.66667 11.4399 4 12.1498 5.81333H14.6414C15.3514 4 17.3607 2.66667 19.4237 2.66667C22.1028 2.66667 24.1121 4.66667 24.1121 7.33333C24.1121 11.1867 19.9059 14.9867 13.5296 20.7333ZM19.4237 0C17.0928 0 14.8558 1.08 13.3956 2.77333C11.9355 1.08 9.69844 0 7.3676 0C3.24174 0 0 3.21333 0 7.33333C0 12.36 4.55452 16.48 11.4533 22.7067L13.3956 24.4667L15.338 22.7067C22.2368 16.48 26.7913 12.36 26.7913 7.33333C26.7913 3.21333 23.5495 0 19.4237 0Z"
        fill="white" />
</svg>
