<svg width="25" height="28" viewBox="0 0 25 28" fill="none" xmlns="http://www.w3.org/2000/svg">
<path d="M1 13.3658C1 11.2157 1 10.1406 1.43383 9.19533C1.86925 8.25008 2.68467 7.55183 4.31708 6.15217L5.90042 4.79525C8.85333 2.26667 10.3258 1 12.0833 1C13.8408 1 15.3149 2.26508 18.2662 4.79367L19.8496 6.15058C21.4804 7.55025 22.2974 8.2485 22.7312 9.19375C23.1667 10.139 23.1667 11.2141 23.1667 13.3643V20.0792C23.1667 23.0653 23.1667 24.5568 22.2388 25.4847C21.311 26.4125 19.8195 26.4125 16.8333 26.4125H7.33333C4.34717 26.4125 2.85567 26.4125 1.92783 25.4847C1 24.5568 1 23.0653 1 20.0792V13.3658Z" stroke="black" stroke-width="2"/>
<path d="M16.0417 26.4126V18.4959C16.0417 18.076 15.8749 17.6733 15.5779 17.3763C15.281 17.0794 14.8783 16.9126 14.4583 16.9126H9.70833C9.28841 16.9126 8.88568 17.0794 8.58875 17.3763C8.29182 17.6733 8.125 18.076 8.125 18.4959V26.4126" stroke="black" stroke-width="2" stroke-linecap="round" stroke-linejoin="round"/>
</svg>
