<svg width="18" height="21" viewBox="0 0 18 21" fill="none" xmlns="http://www.w3.org/2000/svg">
    <path fill-rule="evenodd" clip-rule="evenodd"
        d="M0.786467 7.0867C0.453369 7.80194 0.453369 8.61543 0.453369 10.2424V15.3222C0.453369 17.583 0.453369 18.7127 1.16576 19.4136C1.81129 20.051 2.81545 20.1085 4.70827 20.1145V14.1241C4.70827 13.4887 4.96443 12.8792 5.4204 12.4298C5.87637 11.9805 6.4948 11.728 7.13964 11.728H10.7867C11.4315 11.728 12.05 11.9805 12.5059 12.4298C12.9619 12.8792 13.2181 13.4887 13.2181 14.1241V20.1145C15.1109 20.1085 16.1151 20.0498 16.7606 19.4124C17.473 18.7103 17.473 17.5818 17.473 15.3222V10.2424C17.473 8.61543 17.473 7.80194 17.1399 7.0867C16.8056 6.37145 16.1795 5.8431 14.9261 4.78401L13.7104 3.75727C11.4432 1.84395 10.3126 0.885498 8.96317 0.885498C7.61376 0.885498 6.48196 1.84275 4.21592 3.75607L3.00023 4.78281C1.74807 5.8419 1.12078 6.37025 0.787683 7.0855M10.7867 20.1145V14.1241H7.13964V20.1145H10.7867Z"
        fill="black" />
</svg>
