<svg width="20" height="20" viewBox="0 0 20 20" fill="none" xmlns="http://www.w3.org/2000/svg">
<path d="M8.3335 14.1667L11.6668 10.8334M8.3335 10.8334H8.341M11.6593 14.1667H11.6668M10.0002 18.3334C11.7683 18.3334 13.464 17.631 14.7142 16.3808C15.9645 15.1306 16.6668 13.4349 16.6668 11.6667C16.6668 6.66675 10.0002 1.66675 10.0002 1.66675C9.67683 3.73925 9.36016 4.85175 8.3335 6.66675C7.3335 6.20425 7.0835 5.83341 6.66683 4.79175C5.00016 6.66675 3.3335 9.16675 3.3335 11.6667C3.3335 13.4349 4.03588 15.1306 5.28612 16.3808C6.53636 17.631 8.23205 18.3334 10.0002 18.3334Z" stroke="black" stroke-width="1.5" stroke-linecap="round" stroke-linejoin="round"/>
</svg>
