<svg width="17" height="17" viewBox="0 0 17 17" fill="none" xmlns="http://www.w3.org/2000/svg">
<path d="M14.875 7.63582V5.66666C14.875 4.49791 13.9188 3.54166 12.75 3.54166H9.91669C9.37127 3.54166 8.87544 3.75416 8.50002 4.09416C8.1246 3.75416 7.62877 3.54166 7.08335 3.54166H4.25002C3.08127 3.54166 2.12502 4.49791 2.12502 5.66666V7.63582C1.69294 8.02541 1.41669 8.58499 1.41669 9.20832V13.4583H2.83335V12.0417H14.1667V13.4583H15.5834V9.20832C15.5834 8.58499 15.3071 8.02541 14.875 7.63582ZM9.91669 4.95832H12.75C13.1396 4.95832 13.4584 5.27707 13.4584 5.66666V7.08332H9.20835V5.66666C9.20835 5.27707 9.5271 4.95832 9.91669 4.95832ZM3.54169 5.66666C3.54169 5.27707 3.86044 4.95832 4.25002 4.95832H7.08335C7.47294 4.95832 7.79169 5.27707 7.79169 5.66666V7.08332H3.54169V5.66666ZM2.83335 10.625V9.20832C2.83335 8.81874 3.1521 8.49999 3.54169 8.49999H13.4584C13.8479 8.49999 14.1667 8.81874 14.1667 9.20832V10.625H2.83335Z" fill="#A5A5A5"/>
</svg>
