<svg width="536" height="372" viewBox="0 0 536 372" fill="none" xmlns="http://www.w3.org/2000/svg">
    <path
        d="M411.68 240C408.68 238 389.12 218.14 385.77 213.9C386.28 212.39 387.7 211.83 388.87 211.08C401.6 202.96 403.01 184.08 395.92 173.44C393.418 169.691 389.968 166.672 385.92 164.69C380.901 162.162 375.492 160.499 369.92 159.77C365.64 159.212 361.334 158.878 357.02 158.77C350.02 158.59 342.94 158.62 335.91 158.7C334.48 158.779 333.049 158.545 331.719 158.013C330.389 157.481 329.191 156.664 328.21 155.62C319.77 146.87 311.21 138.26 302.68 129.62C302.03 128.96 301.49 128.2 300.98 127.62C301.67 125.88 302.98 126.45 303.98 126.44C314.37 126.38 324.77 126.39 335.17 126.35C341.24 126.35 347.32 126.35 353.4 126.15C360.774 125.974 367.99 123.971 374.4 120.32C380.16 117.03 384.4 112.45 386.48 106.01C388.373 100.171 388.457 93.8969 386.72 88.01C385.045 82.2518 381.188 77.3753 375.97 74.42C370.009 70.9347 363.305 68.9159 356.41 68.53C354.5 68.37 352.58 68.37 350.66 68.36L300.76 68.31C299.64 68.31 298.52 68.31 297.4 68.31C294.72 68.46 294.17 69.0499 294.04 71.88C294.04 72.88 294.04 73.8 294.04 74.76C294.04 87.8733 294.04 100.987 294.04 114.1V118.63C293.878 118.786 293.684 118.904 293.471 118.977C293.258 119.049 293.032 119.074 292.809 119.049C292.586 119.024 292.37 118.951 292.179 118.833C291.987 118.716 291.824 118.558 291.7 118.37C289.893 116.557 288.097 114.737 286.31 112.91C277.69 104 269.05 95 260.23 86.21C259.016 85.0698 258.065 83.6781 257.445 82.1321C256.825 80.5861 256.55 78.9233 256.64 77.26C256.79 64.79 256.64 52.32 256.64 39.84C256.64 38.27 256.74 36.69 256.79 35.45C258.35 34.1 259.79 34.23 261.26 34.23C264.78 34.23 268.26 34.3 271.81 34.31C295.323 34.35 318.833 34.3866 342.34 34.42C348.74 34.42 355.13 34.54 361.53 34.64C373.407 34.7168 385.116 37.4502 395.8 42.64C401.878 45.537 407.418 49.4498 412.18 54.21C419.906 62.0049 424.727 72.2118 425.84 83.13C426.574 89.6524 426.277 96.2498 424.96 102.68C423.031 112.996 417.628 122.341 409.65 129.16C406.65 131.78 403.28 133.97 400.05 136.31C398.9 137.14 397.66 137.85 396.5 138.59C396.66 139.98 397.75 140.06 398.5 140.4C400.83 141.4 403.27 142.26 405.55 143.4C408.84 145.04 412.14 146.7 415.24 148.65C428.03 156.65 435.79 168.16 437.74 183.21C439.144 192.742 438.371 202.469 435.48 211.66C431.62 223.41 424.15 232.27 413.93 238.97C413.205 239.365 412.453 239.709 411.68 240Z"
        fill="black" />
    <path
        d="M115.55 248.52L256.49 104.66C258.49 105.44 259.49 106.93 260.65 108.14C275.55 123.313 290.437 138.5 305.31 153.7L393.94 244.17C395.26 245.53 396.53 246.93 398.15 248.66C397.397 249.033 396.605 249.325 395.79 249.53C394.676 249.63 393.558 249.66 392.44 249.62C382.84 249.62 373.25 249.45 363.65 249.62C361.829 249.712 360.01 249.402 358.323 248.711C356.636 248.019 355.122 246.964 353.89 245.62C322.75 213.667 291.547 181.78 260.28 149.96C259.28 148.96 258.28 147.88 257.09 146.6C256.43 147.16 255.71 147.67 255.09 148.3C223.31 180.733 191.547 213.187 159.8 245.66C158.64 246.971 157.205 248.009 155.597 248.7C153.99 249.392 152.249 249.719 150.5 249.66C140.59 249.54 130.67 249.66 120.76 249.66C119.21 249.6 117.56 250 115.55 248.52Z"
        fill="black" />
    <path
        d="M106.61 297.11C107.97 297.88 108.93 298.36 109.82 298.94C111.569 300.074 113.005 301.63 113.997 303.464C114.988 305.299 115.502 307.352 115.492 309.437C115.482 311.522 114.948 313.571 113.94 315.396C112.931 317.221 111.48 318.763 109.72 319.88C107.182 321.597 104.212 322.563 101.15 322.67C92.8399 322.82 84.5199 322.67 76.2099 322.67C76.0799 322.67 75.9499 322.51 75.4699 322.19C75.3013 321.389 75.1943 320.577 75.1499 319.76C75.1499 305.52 75.1499 291.283 75.1499 277.05C75.1955 276.192 75.289 275.337 75.4299 274.49C76.3444 274.275 77.2736 274.128 78.2099 274.05C84.6099 274.05 91.0099 274.05 97.3999 274.05C100.452 274.007 103.479 274.6 106.29 275.79C114.93 279.54 116.19 289.67 108.75 295.51C108.17 296 107.56 296.39 106.61 297.11ZM84.6099 315.17C89.6099 315.17 94.0299 315.26 98.4799 315.11C99.9082 314.978 101.294 314.553 102.55 313.86C103.569 313.372 104.422 312.595 105.003 311.626C105.584 310.657 105.868 309.539 105.82 308.41C105.843 307.281 105.539 306.17 104.945 305.21C104.35 304.25 103.491 303.482 102.47 303C100.766 302.103 98.8653 301.645 96.9399 301.67C93.7499 301.67 90.5599 301.67 87.3599 301.67C86.4098 301.75 85.4649 301.883 84.5299 302.07C84.0397 306.424 84.0598 310.821 84.5899 315.17H84.6099ZM84.5299 294.17C87.8499 294.17 90.6999 294.17 93.5299 294.17C94.9614 294.261 96.3983 294.21 97.8199 294.02C99.2194 293.785 100.557 293.268 101.75 292.5C102.429 292.007 102.991 291.37 103.396 290.634C103.8 289.898 104.037 289.082 104.09 288.245C104.142 287.407 104.009 286.568 103.7 285.787C103.39 285.007 102.912 284.304 102.3 283.73C101.238 282.773 99.9215 282.145 98.5099 281.92C93.9033 281.4 89.2518 281.42 84.6499 281.98C83.8799 286 84.1699 289.69 84.5099 294.14L84.5299 294.17Z"
        fill="black" />
    <path
        d="M385.25 290.74C385.56 283.74 385.15 277.74 385.56 271.4C387.07 271.29 388.3 271.16 389.56 271.12C390.82 271.08 392.1 271.12 393.12 271.12C394.67 272.48 394.28 274.01 394.28 275.39C394.28 284.98 394.28 294.58 394.28 304.18C394.28 308.82 394.28 313.46 394.28 318.1C394.28 319.5 394.12 320.9 394.01 322.54C391.262 323.01 388.455 323.03 385.7 322.6C385.5 321.27 385.33 320.04 385.11 318.51C384.502 318.721 383.924 319.01 383.39 319.37C379.68 322.78 375.24 323.56 370.39 323.08C367.331 322.882 364.395 321.802 361.937 319.971C359.479 318.139 357.604 315.635 356.54 312.76C354.305 307.544 354.205 301.659 356.26 296.37C357.188 293.845 358.701 291.576 360.676 289.75C362.651 287.924 365.031 286.593 367.621 285.865C370.211 285.138 372.936 285.036 375.573 285.567C378.21 286.098 380.684 287.247 382.79 288.92L385.25 290.74ZM363.83 304.09C364.051 305.777 364.385 307.447 364.83 309.09C365.511 311.184 366.841 313.007 368.627 314.296C370.412 315.585 372.562 316.272 374.764 316.259C376.966 316.245 379.107 315.532 380.877 314.222C382.647 312.912 383.954 311.072 384.61 308.97C385.766 305.783 385.665 302.276 384.33 299.16C383.578 297.259 382.279 295.624 380.597 294.461C378.916 293.298 376.928 292.66 374.884 292.627C372.839 292.594 370.831 293.167 369.113 294.275C367.395 295.382 366.044 296.975 365.23 298.85C364.632 300.559 364.164 302.31 363.83 304.09Z"
        fill="black" />
    <path
        d="M284.41 281.41C276.41 282.03 268.76 281.33 260.9 281.87C259.68 286.15 260.42 290.39 260.36 294.87C261.437 295.144 262.534 295.335 263.64 295.44C268.11 295.5 272.59 295.44 277.06 295.49C278.63 295.49 280.2 295.62 281.83 295.69C282.9 298.07 282.27 300.25 282.39 302.62C281.242 302.865 280.08 303.039 278.91 303.14C274.27 303.14 269.64 303.14 265.01 303.14C263.61 303.14 262.21 303.32 260.56 303.44C260.02 306.81 260.34 309.99 260.26 313.14C260.339 316.219 260.256 319.3 260.01 322.37C257.01 323.13 254.26 322.72 251.57 322.63C250.79 318.23 250.78 278.58 251.57 274.27C256.87 273.61 262.27 274.04 267.65 273.99C273.03 273.94 278.47 273.85 284.01 274.08C285 276.48 284.47 278.68 284.41 281.41Z"
        fill="black" />
    <path
        d="M155 322.63H146.79L145.93 319.63C145.221 319.915 144.532 320.249 143.87 320.63C141.903 321.875 139.708 322.716 137.412 323.104C135.117 323.492 132.767 323.419 130.5 322.89C123.75 321.57 119.94 315.65 121.5 308.89C121.799 307.558 122.387 306.308 123.221 305.229C124.056 304.149 125.117 303.265 126.33 302.64C128.43 301.455 130.789 300.805 133.2 300.75C135.76 300.68 138.32 300.7 140.88 300.65C142.45 300.65 144.03 300.53 145.45 300.48C146.76 298.89 146.03 297.54 145.52 296.24C145.206 295.492 144.74 294.818 144.151 294.26C143.562 293.702 142.864 293.273 142.1 293C139.724 291.977 137.067 291.807 134.58 292.52C131.98 293.26 129.45 294.26 126.69 295.22C125.17 294.14 124.62 292.22 123.6 290.35C124.253 289.72 124.963 289.151 125.72 288.65C131.135 285.778 137.331 284.727 143.39 285.65C150.7 286.6 154.84 291.24 154.95 298.59C155.06 306.4 155 314.22 155 322.63ZM145.81 306.63C141.965 306.35 138.105 306.35 134.26 306.63C133.785 306.692 133.318 306.81 132.87 306.98C131.77 307.263 130.825 307.969 130.243 308.945C129.661 309.921 129.487 311.087 129.76 312.19C129.904 313.14 130.325 314.026 130.971 314.738C131.617 315.45 132.458 315.955 133.39 316.19C135.709 316.879 138.188 316.802 140.46 315.97C142.323 315.433 143.935 314.254 145.01 312.64C145.608 311.774 145.99 310.777 146.124 309.734C146.258 308.69 146.14 307.629 145.78 306.64L145.81 306.63Z"
        fill="black" />
    <path
        d="M347.76 322.65H339.57C339.356 321.557 339.213 320.451 339.14 319.34C339.09 314.22 339.14 309.11 339.08 303.99C339.062 302.238 338.848 300.494 338.44 298.79C338.156 297.616 337.561 296.54 336.719 295.674C335.876 294.809 334.816 294.186 333.65 293.87C327.9 292 322.27 295.42 321.11 301.6C320.901 303.023 320.818 304.462 320.86 305.9C320.86 310.06 320.86 314.22 320.86 318.37C320.86 319.63 320.74 320.88 320.67 322.37C317.89 323.15 315.23 322.8 312.33 322.63C312.057 321.751 311.873 320.846 311.78 319.93C311.74 309.53 311.74 299.137 311.78 288.75C311.78 287.98 311.93 287.2 312.02 286.26C314.74 285.17 317.4 285.76 320.34 285.8L321.34 290.8C322.18 290.16 322.92 289.66 323.59 289.09C328.15 285.23 333.42 284.63 338.94 286.09C344.12 287.43 346.86 291.2 347.83 296.33C348.003 297.434 348.077 298.552 348.05 299.67C348.05 306.39 348.05 313.107 348.05 319.82C348 320.56 347.88 321.34 347.76 322.65Z"
        fill="black" />
    <path
        d="M439 307.17C434.45 307.66 430 307.35 425.56 307.41C421.12 307.47 416.95 307.41 412.3 307.41C412.385 308.43 412.587 309.436 412.9 310.41C415.53 315.88 421.49 317.49 427.27 315.52C429.229 314.69 431.122 313.711 432.93 312.59C434.684 313.727 436.166 315.236 437.27 317.01C434.567 320.031 430.917 322.044 426.92 322.72C423.771 323.367 420.525 323.384 417.37 322.77C410.53 321.4 405.89 317.44 403.66 310.77C402.501 307.248 402.321 303.477 403.14 299.86C404.7 292.65 409.09 288.01 416.26 286.06C419.679 285.157 423.263 285.074 426.72 285.82C429.511 286.265 432.11 287.518 434.195 289.425C436.28 291.333 437.759 293.81 438.45 296.55C439.605 299.972 439.796 303.647 439 307.17ZM431.17 300.86C431.203 299.282 430.79 297.727 429.978 296.373C429.166 295.02 427.988 293.923 426.58 293.21C425.351 292.551 423.998 292.154 422.607 292.046C421.217 291.938 419.819 292.12 418.502 292.58C417.186 293.041 415.979 293.771 414.96 294.723C413.94 295.675 413.13 296.828 412.58 298.11C412.13 299.11 411.71 300.2 412.58 301.24C418.13 301.92 427.73 301.76 431.14 300.86H431.17Z"
        fill="black" />
    <path
        d="M158.61 333.47L162.01 327.71C163.01 328.01 163.87 328.29 164.74 328.54C167.21 329.23 169.56 329.17 171.3 327.01C173.04 324.85 173.91 322.56 172.58 319.54C168.39 310.06 164.49 300.45 160.49 290.88C159.89 289.44 159.37 287.97 158.77 286.38C160.33 285.38 161.77 285.75 163.14 285.69C164.51 285.63 165.68 285.69 166.59 285.69C168.39 286.69 168.59 288.22 169.07 289.51C171.57 295.9 173.98 302.32 176.46 308.72C176.9 309.86 177.54 310.92 178.4 312.72C182.13 303.54 184.68 294.72 188.08 286.13C190.861 285.576 193.721 285.552 196.51 286.06C196.375 287.031 196.164 287.991 195.88 288.93C190.773 301.83 185.64 314.727 180.48 327.62C180.37 327.92 180.21 328.2 180.08 328.49C176 337.32 167.19 339.57 158.61 333.47Z"
        fill="black" />
    <path
        d="M224.26 320.46C222.493 321.686 220.494 322.537 218.385 322.962C216.277 323.387 214.104 323.376 212 322.93C210.239 322.688 208.594 321.912 207.287 320.707C205.98 319.502 205.074 317.926 204.69 316.19C204.32 314.644 204.128 313.06 204.12 311.47C204.05 306.83 204.12 302.2 204.12 297.56C204.12 296.33 203.93 295.09 203.81 293.64L199.37 292.99C198.9 291.189 198.879 289.301 199.31 287.49L203.66 286.92C204.66 283.72 203.66 280.44 204.52 277.25C207.164 276.805 209.859 276.744 212.52 277.07C212.785 278.108 212.975 279.164 213.09 280.23C213.21 282.23 213.19 284.34 213.22 286.4C216.65 288.06 220.15 286.46 223.5 287.7C223.996 289.355 224.038 291.113 223.62 292.79C220.29 293.97 216.79 292.55 213.53 293.9C213.342 294.834 213.215 295.779 213.15 296.73C213.15 301.05 213.07 305.36 213.15 309.68C213.26 315.29 214.79 316.41 220.31 315.1C220.78 314.99 221.22 314.81 221.82 314.62C223.53 316 223.43 318.19 224.26 320.46Z"
        fill="black" />
    <path
        d="M456.16 322.62C453.529 322.92 450.871 322.92 448.24 322.62C448.014 322.102 447.853 321.558 447.76 321C447.76 309.82 447.76 298.643 447.76 287.47C447.852 286.943 448.017 286.432 448.25 285.95C450.73 285.34 453.25 285.76 456.04 285.69C456.32 287.53 456.58 289.17 456.84 290.91C458.57 290.78 459 289.05 460.2 288.39C461.6 287.63 462.96 286.81 464.41 286.16C465.686 285.493 467.162 285.316 468.56 285.66C469.46 288.55 469.46 288.55 469.01 292.87C468.08 293.12 467.01 293.44 466.01 293.66C460.09 294.91 456.88 298.53 456.59 304.61C456.42 308.12 456.59 311.61 456.53 315.15C456.5 317.55 456.81 319.94 456.16 322.62Z"
        fill="black" />
    <path
        d="M291.77 285.91H299.77C300.066 286.799 300.264 287.718 300.36 288.65C300.4 299.023 300.4 309.397 300.36 319.77C300.281 320.748 300.12 321.718 299.88 322.67H292C291.741 321.942 291.567 321.187 291.48 320.42C291.48 309.567 291.48 298.713 291.48 287.86C291.535 287.205 291.632 286.553 291.77 285.91Z"
        fill="black" />
    <path
        d="M246.34 234.78C248.25 234.78 250.18 234.71 252.09 234.78C252.415 234.748 252.743 234.789 253.051 234.901C253.358 235.012 253.636 235.191 253.866 235.424C254.095 235.657 254.269 235.938 254.375 236.247C254.482 236.556 254.517 236.885 254.48 237.21C254.553 241.21 254.553 245.21 254.48 249.21C254.508 249.536 254.463 249.864 254.347 250.17C254.232 250.475 254.05 250.752 253.814 250.978C253.578 251.204 253.295 251.375 252.984 251.477C252.674 251.58 252.344 251.612 252.02 251.57C248.02 251.637 244.02 251.637 240.02 251.57C239.735 251.584 239.45 251.537 239.185 251.431C238.92 251.326 238.68 251.165 238.482 250.96C238.284 250.754 238.132 250.509 238.037 250.24C237.942 249.971 237.905 249.684 237.93 249.4C237.863 245.24 237.863 241.083 237.93 236.93C237.917 236.644 237.966 236.358 238.073 236.093C238.18 235.827 238.343 235.588 238.551 235.391C238.758 235.193 239.006 235.043 239.277 234.95C239.547 234.857 239.835 234.823 240.12 234.85C242.2 234.77 244.28 234.85 246.36 234.85L246.34 234.78Z"
        fill="black" />
    <path
        d="M238.82 230.55C238.3 229.55 238.03 229.27 238.02 228.99C237.96 224.86 237.87 220.73 237.94 216.6C237.901 216.274 237.934 215.944 238.038 215.633C238.141 215.322 238.312 215.037 238.539 214.8C238.766 214.563 239.042 214.379 239.348 214.261C239.654 214.144 239.983 214.095 240.31 214.12C244.31 214.02 248.31 214.05 252.25 214.12C252.535 214.121 252.817 214.18 253.079 214.292C253.34 214.404 253.577 214.567 253.775 214.772C253.973 214.977 254.127 215.22 254.229 215.486C254.332 215.752 254.379 216.035 254.37 216.32C254.47 220.447 254.47 224.58 254.37 228.72C254.36 229.212 254.155 229.679 253.801 230.02C253.446 230.361 252.972 230.548 252.48 230.54C247.92 230.75 243.32 230.74 238.82 230.55Z"
        fill="black" />
    <path
        d="M275.07 235.58C275.408 240.172 275.462 244.781 275.23 249.38C275.256 249.664 275.221 249.951 275.127 250.22C275.033 250.49 274.882 250.736 274.685 250.943C274.488 251.149 274.249 251.311 273.984 251.417C273.72 251.524 273.435 251.573 273.15 251.56C269.003 251.62 264.853 251.62 260.7 251.56C260.455 251.563 260.212 251.516 259.986 251.423C259.759 251.329 259.554 251.191 259.382 251.017C259.21 250.842 259.075 250.634 258.986 250.407C258.896 250.179 258.853 249.935 258.86 249.69C258.8 245.39 258.8 241.083 258.86 236.77C258.86 235.54 259.7 234.86 261.15 234.85C265.3 234.85 269.45 234.85 273.59 234.95C273.87 234.91 274.15 235.15 275.07 235.58Z"
        fill="black" />
    <path
        d="M275 230.34C269.47 230.91 264.59 230.61 259.7 230.62C259.32 229.8 258.84 229.25 258.83 228.68C258.74 224.87 258.66 221.06 258.75 217.25C258.8 214.96 259.64 214.15 262 214.05C266.11 213.89 270.23 213.54 274.5 214.46C274.841 215.323 275.083 216.222 275.22 217.14C275.468 221.539 275.395 225.951 275 230.34Z"
        fill="black" />
    <path
        d="M300.8 274.79C300.838 275.463 300.735 276.137 300.499 276.769C300.263 277.401 299.899 277.977 299.429 278.461C298.959 278.945 298.394 279.326 297.769 279.581C297.145 279.835 296.474 279.958 295.8 279.94C295.143 279.96 294.489 279.851 293.875 279.619C293.26 279.386 292.698 279.035 292.219 278.585C291.74 278.135 291.355 277.595 291.085 276.997C290.815 276.398 290.665 275.752 290.645 275.095C290.625 274.438 290.734 273.784 290.966 273.17C291.199 272.555 291.55 271.993 292 271.514C292.45 271.035 292.99 270.65 293.588 270.38C294.187 270.11 294.833 269.96 295.49 269.94C296.165 269.873 296.847 269.948 297.491 270.162C298.135 270.375 298.727 270.722 299.228 271.18C299.729 271.637 300.127 272.195 300.398 272.817C300.669 273.439 300.806 274.112 300.8 274.79Z"
        fill="black" />
</svg>
