<svg width="26" height="26" viewBox="0 0 26 26" fill="none" xmlns="http://www.w3.org/2000/svg">
<path d="M2.16675 13C2.16675 18.9832 7.01683 23.8333 13.0001 23.8333C18.9833 23.8333 23.8334 18.9832 23.8334 13C23.8334 7.01674 18.9833 2.16666 13.0001 2.16666C7.01683 2.16666 2.16675 7.01674 2.16675 13Z" stroke="white" stroke-width="1.5" stroke-linecap="round" stroke-linejoin="round"/>
<path d="M14.0835 2.22083C14.0835 2.22083 17.3335 6.49999 17.3335 13C17.3335 19.5 14.0835 23.7792 14.0835 23.7792M11.9169 23.7792C11.9169 23.7792 8.66687 19.5 8.66687 13C8.66687 6.49999 11.9169 2.22083 11.9169 2.22083M2.84937 16.7917H23.151M2.84937 9.20832H23.151" stroke="white" stroke-width="1.5" stroke-linecap="round" stroke-linejoin="round"/>
</svg>
