<svg width="32" height="32" viewBox="0 0 32 32" fill="none" xmlns="http://www.w3.org/2000/svg">
<path d="M5 14.4187C5.6304 14.1419 6.3115 13.9993 7 14H25C25.6884 13.9993 26.3695 14.1417 27 14.4181C27.8911 14.8078 28.6494 15.4487 29.1822 16.2624C29.715 17.0761 29.9991 18.0274 30 19V26C30 26.2652 29.8946 26.5196 29.7071 26.7071C29.5196 26.8946 29.2652 27 29 27C28.7348 27 28.4804 26.8946 28.2929 26.7071C28.1054 26.5196 28 26.2652 28 26V25.5C27.9984 25.3679 27.9452 25.2417 27.8518 25.1482C27.7583 25.0548 27.6321 25.0016 27.5 25H4.5C4.3679 25.0016 4.24166 25.0548 4.14824 25.1482C4.05482 25.2417 4.00162 25.3679 4 25.5V26C4 26.2652 3.89464 26.5196 3.70711 26.7071C3.51957 26.8946 3.26522 27 3 27C2.73478 27 2.48043 26.8946 2.29289 26.7071C2.10536 26.5196 2 26.2652 2 26V19C2.00097 18.0275 2.28521 17.0763 2.81798 16.2628C3.35075 15.4492 4.10897 14.8084 5 14.4187ZM8.5 5H23.5C24.4283 5 25.3185 5.36875 25.9749 6.02513C26.6313 6.6815 27 7.57174 27 8.5V13C27 13.0387 26.9909 13.0769 26.9736 13.1116C26.9563 13.1463 26.9312 13.1764 26.9002 13.1997C26.8692 13.223 26.8333 13.2387 26.7952 13.2457C26.7571 13.2527 26.7178 13.2508 26.6806 13.24C26.1347 13.0803 25.5688 12.9995 25 13H24.7356C24.6739 13.0004 24.6142 12.9779 24.5681 12.937C24.5219 12.896 24.4926 12.8394 24.4856 12.7781C24.4311 12.2895 24.1985 11.8381 23.8322 11.5101C23.4659 11.1821 22.9917 11.0005 22.5 11H19C18.508 11 18.0333 11.1814 17.6666 11.5095C17.3 11.8375 17.0671 12.2892 17.0125 12.7781C17.0056 12.8394 16.9762 12.896 16.93 12.937C16.8839 12.9779 16.8242 13.0004 16.7625 13H15.2337C15.172 13.0004 15.1124 12.9779 15.0662 12.937C15.0201 12.896 14.9907 12.8394 14.9837 12.7781C14.9292 12.2898 14.6969 11.8387 14.331 11.5107C13.9651 11.1828 13.4913 11.001 13 11H9.5C9.00801 11 8.5333 11.1814 8.16663 11.5095C7.79997 11.8375 7.56708 12.2892 7.5125 12.7781C7.50556 12.8394 7.47619 12.896 7.43003 12.937C7.38388 12.9779 7.32421 13.0004 7.2625 13H7C6.43119 12.9997 5.86526 13.0807 5.31937 13.2406C5.2821 13.2514 5.24284 13.2533 5.20469 13.2463C5.16654 13.2393 5.13055 13.2235 5.09956 13.2001C5.06858 13.1768 5.04345 13.1465 5.02617 13.1118C5.00889 13.0771 4.99993 13.0388 5 13V8.5C5 7.57174 5.36875 6.6815 6.02513 6.02513C6.6815 5.36875 7.57174 5 8.5 5Z" fill="#5A5A5A"/>
</svg>
