<svg width="75" height="60" viewBox="0 0 75 60" fill="none" xmlns="http://www.w3.org/2000/svg">
<path fill-rule="evenodd" clip-rule="evenodd" d="M11.25 60C8.26631 60 5.40483 58.8147 3.29505 56.705C1.18526 54.5952 0 51.7337 0 48.75V11.25C0 8.26631 1.18526 5.40483 3.29505 3.29505C5.40483 1.18526 8.26631 0 11.25 0H63.75C66.7337 0 69.5952 1.18526 71.7049 3.29505C73.8147 5.40483 75 8.26631 75 11.25V48.75C75 51.7337 73.8147 54.5952 71.7049 56.705C69.5952 58.8147 66.7337 60 63.75 60H11.25ZM21.0937 15.825C20.7118 15.4988 20.2681 15.2527 19.7892 15.1013C19.3102 14.9498 18.8057 14.8962 18.3057 14.9434C17.8056 14.9907 17.3201 15.138 16.878 15.3765C16.4359 15.615 16.0463 15.9399 15.7322 16.3319C15.4181 16.7239 15.186 17.175 15.0495 17.6584C14.9131 18.1419 14.8752 18.6478 14.9381 19.1461C15.001 19.6445 15.1633 20.1252 15.4155 20.5596C15.6677 20.994 16.0046 21.3733 16.4062 21.675L30.4687 32.9287C32.4641 34.5263 34.9439 35.3967 37.5 35.3967C40.0561 35.3967 42.5359 34.5263 44.5312 32.9287L58.5937 21.6788C58.9784 21.371 59.2986 20.9904 59.5361 20.5589C59.7737 20.1274 59.9239 19.6533 59.9782 19.1637C60.0325 18.6741 59.9899 18.1786 59.8527 17.7054C59.7155 17.2323 59.4865 16.7909 59.1787 16.4062C58.871 16.0216 58.4904 15.7014 58.0589 15.4639C57.6273 15.2263 57.1533 15.0761 56.6637 15.0218C56.1741 14.9675 55.6786 15.0101 55.2054 15.1473C54.7323 15.2844 54.2909 15.5135 53.9062 15.8212L39.8437 27.0712C39.1786 27.6038 38.352 27.8939 37.5 27.8939C36.648 27.8939 35.8214 27.6038 35.1562 27.0712L21.0937 15.825Z" fill="white"/>
</svg>
