<svg width="20" height="20" viewBox="0 0 20 20" fill="none" xmlns="http://www.w3.org/2000/svg">
<g clip-path="url(#clip0_9_166)">
<path d="M10.125 13.4583C10.5834 13.4583 10.9759 13.3508 11.3025 13.1358C11.6292 12.9208 11.7923 12.5838 11.7917 12.1249C11.7917 11.7221 11.6217 11.3958 11.2817 11.1458C10.9417 10.8958 10.3339 10.611 9.45837 10.2916C8.63893 9.99992 8.03837 9.6527 7.65671 9.24992C7.27504 8.84714 7.08393 8.31936 7.08337 7.66659C7.08337 7.09714 7.28143 6.57992 7.67754 6.11492C8.07365 5.64992 8.61171 5.3477 9.29171 5.20825V4.89575C9.29171 4.70131 9.36476 4.53131 9.51087 4.38575C9.65699 4.2402 9.82698 4.16714 10.0209 4.16659C10.2148 4.16603 10.385 4.23909 10.5317 4.38575C10.6784 4.53242 10.7512 4.70242 10.75 4.89575V5.20825C11.1528 5.23603 11.5245 5.37159 11.865 5.61492C12.2056 5.85825 12.4798 6.15325 12.6875 6.49992C12.7848 6.6527 12.7917 6.81603 12.7084 6.98992C12.625 7.16381 12.4862 7.2852 12.2917 7.35409C12.1112 7.42353 11.9306 7.43047 11.75 7.37492C11.5695 7.31936 11.4237 7.2152 11.3125 7.06242C11.1737 6.89575 11 6.76047 10.7917 6.65659C10.5834 6.5527 10.3334 6.50047 10.0417 6.49992C9.5556 6.49992 9.18393 6.60409 8.92671 6.81242C8.66948 7.02075 8.54115 7.30547 8.54171 7.66659C8.54226 8.0277 8.70198 8.31242 9.02087 8.52075C9.33976 8.72909 9.91615 8.97214 10.75 9.24992C11.75 9.61103 12.4167 10.0346 12.75 10.5208C13.0834 11.0069 13.25 11.5416 13.25 12.1249C13.25 12.5277 13.1806 12.8819 13.0417 13.1874C12.9028 13.493 12.7187 13.7535 12.4892 13.9691C12.2598 14.1846 11.9925 14.3583 11.6875 14.4899C11.3825 14.6216 11.0562 14.7221 10.7084 14.7916V15.1041C10.7084 15.2985 10.6353 15.4688 10.4892 15.6149C10.3431 15.761 10.1731 15.8338 9.97921 15.8333C9.78532 15.8327 9.61532 15.7599 9.46921 15.6149C9.3231 15.4699 9.25004 15.2996 9.25004 15.1041V14.7499C8.72226 14.6388 8.27087 14.4305 7.89587 14.1249C7.52087 13.8194 7.22226 13.4305 7.00004 12.9583C6.91671 12.7638 6.92032 12.5763 7.01087 12.3958C7.10143 12.2152 7.24365 12.0902 7.43754 12.0208C7.6181 11.9513 7.79865 11.9546 7.97921 12.0308C8.15976 12.1069 8.29865 12.2285 8.39587 12.3958C8.59032 12.7569 8.83699 13.0241 9.13587 13.1974C9.43476 13.3708 9.76448 13.4577 10.125 13.4583ZM10 19.1666C8.44448 19.1666 7.01393 18.8124 5.70837 18.1041C4.40282 17.3958 3.33337 16.4513 2.50004 15.2708V16.6666C2.50004 16.9027 2.42004 17.1008 2.26004 17.2608C2.10004 17.4208 1.90226 17.5005 1.66671 17.4999C1.43115 17.4994 1.23337 17.4194 1.07337 17.2599C0.913374 17.1005 0.833374 16.9027 0.833374 16.6666V13.3333C0.833374 13.0971 0.913374 12.8994 1.07337 12.7399C1.23337 12.5805 1.43115 12.5005 1.66671 12.4999H5.00004C5.23615 12.4999 5.43421 12.5799 5.59421 12.7399C5.75421 12.8999 5.83393 13.0977 5.83337 13.3333C5.83282 13.5688 5.75282 13.7669 5.59337 13.9274C5.43393 14.088 5.23615 14.1677 5.00004 14.1666H3.77087C4.43754 15.1666 5.31615 15.9721 6.40671 16.5833C7.49726 17.1944 8.69504 17.4999 10 17.4999C11.9584 17.4999 13.6425 16.8471 15.0525 15.5416C16.4625 14.236 17.2645 12.6319 17.4584 10.7291C17.4862 10.5069 17.5834 10.3296 17.75 10.1974C17.9167 10.0652 18.1112 9.99936 18.3334 9.99992C18.5695 9.99992 18.7709 10.073 18.9375 10.2191C19.1042 10.3652 19.1737 10.5421 19.1459 10.7499C19.0487 11.9305 18.7431 13.031 18.2292 14.0516C17.7153 15.0721 17.0487 15.961 16.2292 16.7183C15.4098 17.4755 14.4689 18.0727 13.4067 18.5099C12.3445 18.9471 11.2089 19.166 10 19.1666ZM10 2.49992C8.04171 2.49992 6.35782 3.1527 4.94837 4.45825C3.53893 5.76381 2.73671 7.36797 2.54171 9.27075C2.51393 9.49297 2.41671 9.6702 2.25004 9.80242C2.08337 9.93464 1.88893 10.0005 1.66671 9.99992C1.4306 9.99992 1.22921 9.92714 1.06254 9.78159C0.895874 9.63603 0.82643 9.45881 0.854207 9.24992C0.95143 8.06936 1.25699 6.96881 1.77087 5.94825C2.28476 4.9277 2.95143 4.03881 3.77087 3.28159C4.59032 2.52436 5.53143 1.92714 6.59421 1.48992C7.65698 1.0527 8.79226 0.833808 10 0.833252C11.5556 0.833252 12.9862 1.18742 14.2917 1.89575C15.5973 2.60409 16.6667 3.54853 17.5 4.72909V3.33325C17.5 3.09714 17.58 2.89936 17.74 2.73992C17.9 2.58047 18.0978 2.50047 18.3334 2.49992C18.5689 2.49936 18.767 2.57936 18.9275 2.73992C19.0881 2.90047 19.1678 3.09825 19.1667 3.33325V6.66659C19.1667 6.9027 19.0867 7.10075 18.9267 7.26075C18.7667 7.42075 18.5689 7.50047 18.3334 7.49992H15C14.7639 7.49992 14.5662 7.41992 14.4067 7.25992C14.2473 7.09992 14.1673 6.90214 14.1667 6.66659C14.1662 6.43103 14.2462 6.23325 14.4067 6.07325C14.5673 5.91325 14.765 5.83325 15 5.83325H16.2292C15.5625 4.83325 14.6842 4.0277 13.5942 3.41659C12.5042 2.80547 11.3062 2.49992 10 2.49992Z" fill="black"/>
</g>
<defs>
<clipPath id="clip0_9_166">
<rect width="20" height="20" fill="white"/>
</clipPath>
</defs>
</svg>
