<svg width="31" height="31" viewBox="0 0 31 31" fill="none" xmlns="http://www.w3.org/2000/svg">
<path d="M11.6251 6.45832C11.2825 6.45832 10.954 6.59441 10.7117 6.83665C10.4695 7.07888 10.3334 7.40742 10.3334 7.74999C10.3334 8.09256 10.4695 8.4211 10.7117 8.66334C10.954 8.90557 11.2825 9.04166 11.6251 9.04166C11.9677 9.04166 12.2962 8.90557 12.5384 8.66334C12.7807 8.4211 12.9167 8.09256 12.9167 7.74999C12.9167 7.40742 12.7807 7.07888 12.5384 6.83665C12.2962 6.59441 11.9677 6.45832 11.6251 6.45832ZM7.96966 6.45832C8.23653 5.70201 8.73141 5.04709 9.38611 4.58384C10.0408 4.1206 10.8231 3.87183 11.6251 3.87183C12.4271 3.87183 13.2094 4.1206 13.8641 4.58384C14.5188 5.04709 15.0136 5.70201 15.2805 6.45832H24.5417C24.8843 6.45832 25.2129 6.59441 25.4551 6.83665C25.6973 7.07888 25.8334 7.40742 25.8334 7.74999C25.8334 8.09256 25.6973 8.4211 25.4551 8.66334C25.2129 8.90557 24.8843 9.04166 24.5417 9.04166H15.2805C15.0136 9.79797 14.5188 10.4529 13.8641 10.9161C13.2094 11.3794 12.4271 11.6282 11.6251 11.6282C10.8231 11.6282 10.0408 11.3794 9.38611 10.9161C8.73141 10.4529 8.23653 9.79797 7.96966 9.04166H6.45841C6.11584 9.04166 5.7873 8.90557 5.54507 8.66334C5.30283 8.4211 5.16675 8.09256 5.16675 7.74999C5.16675 7.40742 5.30283 7.07888 5.54507 6.83665C5.7873 6.59441 6.11584 6.45832 6.45841 6.45832H7.96966ZM19.3751 14.2083C19.0325 14.2083 18.704 14.3444 18.4617 14.5866C18.2195 14.8289 18.0834 15.1574 18.0834 15.5C18.0834 15.8426 18.2195 16.1711 18.4617 16.4133C18.704 16.6556 19.0325 16.7917 19.3751 16.7917C19.7177 16.7917 20.0462 16.6556 20.2884 16.4133C20.5307 16.1711 20.6667 15.8426 20.6667 15.5C20.6667 15.1574 20.5307 14.8289 20.2884 14.5866C20.0462 14.3444 19.7177 14.2083 19.3751 14.2083ZM15.7197 14.2083C15.9865 13.452 16.4814 12.7971 17.1361 12.3338C17.7908 11.8706 18.5731 11.6218 19.3751 11.6218C20.1771 11.6218 20.9594 11.8706 21.6141 12.3338C22.2688 12.7971 22.7636 13.452 23.0305 14.2083H24.5417C24.8843 14.2083 25.2129 14.3444 25.4551 14.5866C25.6973 14.8289 25.8334 15.1574 25.8334 15.5C25.8334 15.8426 25.6973 16.1711 25.4551 16.4133C25.2129 16.6556 24.8843 16.7917 24.5417 16.7917H23.0305C22.7636 17.548 22.2688 18.2029 21.6141 18.6661C20.9594 19.1294 20.1771 19.3782 19.3751 19.3782C18.5731 19.3782 17.7908 19.1294 17.1361 18.6661C16.4814 18.2029 15.9865 17.548 15.7197 16.7917H6.45841C6.11584 16.7917 5.7873 16.6556 5.54507 16.4133C5.30283 16.1711 5.16675 15.8426 5.16675 15.5C5.16675 15.1574 5.30283 14.8289 5.54507 14.5866C5.7873 14.3444 6.11584 14.2083 6.45841 14.2083H15.7197ZM11.6251 21.9583C11.2825 21.9583 10.954 22.0944 10.7117 22.3366C10.4695 22.5789 10.3334 22.9074 10.3334 23.25C10.3334 23.5926 10.4695 23.9211 10.7117 24.1633C10.954 24.4056 11.2825 24.5417 11.6251 24.5417C11.9677 24.5417 12.2962 24.4056 12.5384 24.1633C12.7807 23.9211 12.9167 23.5926 12.9167 23.25C12.9167 22.9074 12.7807 22.5789 12.5384 22.3366C12.2962 22.0944 11.9677 21.9583 11.6251 21.9583ZM7.96966 21.9583C8.23653 21.202 8.73141 20.5471 9.38611 20.0838C10.0408 19.6206 10.8231 19.3718 11.6251 19.3718C12.4271 19.3718 13.2094 19.6206 13.8641 20.0838C14.5188 20.5471 15.0136 21.202 15.2805 21.9583H24.5417C24.8843 21.9583 25.2129 22.0944 25.4551 22.3366C25.6973 22.5789 25.8334 22.9074 25.8334 23.25C25.8334 23.5926 25.6973 23.9211 25.4551 24.1633C25.2129 24.4056 24.8843 24.5417 24.5417 24.5417H15.2805C15.0136 25.298 14.5188 25.9529 13.8641 26.4161C13.2094 26.8794 12.4271 27.1282 11.6251 27.1282C10.8231 27.1282 10.0408 26.8794 9.38611 26.4161C8.73141 25.9529 8.23653 25.298 7.96966 24.5417H6.45841C6.11584 24.5417 5.7873 24.4056 5.54507 24.1633C5.30283 23.9211 5.16675 23.5926 5.16675 23.25C5.16675 22.9074 5.30283 22.5789 5.54507 22.3366C5.7873 22.0944 6.11584 21.9583 6.45841 21.9583H7.96966Z" fill="#595959"/>
</svg>
