<svg width="10" height="10" viewBox="0 0 10 10" fill="none" xmlns="http://www.w3.org/2000/svg">
<path d="M2.80002 6.93334C2.90611 6.9024 3.02014 6.91487 3.11703 6.96801C3.21393 7.02114 3.28575 7.11059 3.31669 7.21668C3.34763 7.32276 3.33516 7.4368 3.28203 7.53369C3.22889 7.63058 3.13944 7.7024 3.03335 7.73334C2.82502 7.79418 2.67502 7.85834 2.57877 7.91668C2.67794 7.97626 2.8346 8.04293 3.0521 8.10501C3.53335 8.24251 4.2221 8.33334 5.00002 8.33334C5.77794 8.33334 6.46669 8.24251 6.94794 8.10501C7.16585 8.04293 7.3221 7.97626 7.42127 7.91668C7.32544 7.85834 7.17544 7.79418 6.9671 7.73334C6.86269 7.70104 6.77514 7.629 6.72335 7.53275C6.67155 7.43651 6.65964 7.32376 6.6902 7.21882C6.72075 7.11387 6.79132 7.02514 6.88668 6.97174C6.98205 6.91834 7.09458 6.90455 7.20002 6.93334C7.47835 7.01459 7.73335 7.11876 7.92919 7.25251C8.11044 7.37709 8.33335 7.59418 8.33335 7.91668C8.33335 8.24293 8.10502 8.46168 7.92085 8.58626C7.72169 8.72043 7.46127 8.82501 7.17669 8.90626C6.60252 9.07084 5.83335 9.16668 5.00002 9.16668C4.16669 9.16668 3.39752 9.07084 2.82335 8.90626C2.53877 8.82501 2.27835 8.72043 2.07919 8.58626C1.89502 8.46126 1.66669 8.24293 1.66669 7.91668C1.66669 7.59418 1.8896 7.37709 2.07085 7.25251C2.26669 7.11876 2.52169 7.01459 2.80002 6.93334ZM5.00002 0.833344C5.82882 0.833344 6.62368 1.16258 7.20973 1.74863C7.79578 2.33469 8.12502 3.12954 8.12502 3.95834C8.12502 5.02834 7.54169 5.89834 6.93752 6.51668C6.69735 6.75998 6.43927 6.98492 6.16544 7.18959C5.91794 7.37543 5.3521 7.72376 5.3521 7.72376C5.24479 7.78476 5.12346 7.81683 5.00002 7.81683C4.87658 7.81683 4.75525 7.78476 4.64794 7.72376C4.36713 7.56093 4.0956 7.3826 3.8346 7.18959C3.56037 6.98542 3.30225 6.76045 3.06252 6.51668C2.45835 5.89834 1.87502 5.02834 1.87502 3.95834C1.87502 3.12954 2.20426 2.33469 2.79031 1.74863C3.37636 1.16258 4.17122 0.833344 5.00002 0.833344ZM5.00002 1.66668C4.39223 1.66668 3.80934 1.90812 3.37957 2.33789C2.9498 2.76766 2.70835 3.35056 2.70835 3.95834C2.70835 4.71501 3.12335 5.38668 3.65835 5.93334C4.06085 6.34501 4.50419 6.65834 4.81127 6.85084L5.00002 6.96501L5.18877 6.85084C5.49544 6.65834 5.93919 6.34501 6.34169 5.93376C6.87669 5.38668 7.29169 4.71543 7.29169 3.95834C7.29169 3.35056 7.05024 2.76766 6.62047 2.33789C6.1907 1.90812 5.60781 1.66668 5.00002 1.66668ZM5.00002 2.70834C5.16417 2.70834 5.32672 2.74068 5.47837 2.80349C5.63003 2.86631 5.76783 2.95839 5.8839 3.07446C5.99998 3.19053 6.09205 3.32833 6.15487 3.47999C6.21769 3.63165 6.25002 3.79419 6.25002 3.95834C6.25002 4.1225 6.21769 4.28504 6.15487 4.4367C6.09205 4.58835 5.99998 4.72615 5.8839 4.84223C5.76783 4.9583 5.63003 5.05037 5.47837 5.11319C5.32672 5.17601 5.16417 5.20834 5.00002 5.20834C4.6685 5.20834 4.35056 5.07665 4.11614 4.84223C3.88172 4.60781 3.75002 4.28986 3.75002 3.95834C3.75002 3.62682 3.88172 3.30888 4.11614 3.07446C4.35056 2.84004 4.6685 2.70834 5.00002 2.70834ZM5.00002 3.54168C4.88951 3.54168 4.78353 3.58558 4.70539 3.66372C4.62725 3.74186 4.58335 3.84784 4.58335 3.95834C4.58335 4.06885 4.62725 4.17483 4.70539 4.25297C4.78353 4.33111 4.88951 4.37501 5.00002 4.37501C5.11053 4.37501 5.21651 4.33111 5.29465 4.25297C5.37279 4.17483 5.41669 4.06885 5.41669 3.95834C5.41669 3.84784 5.37279 3.74186 5.29465 3.66372C5.21651 3.58558 5.11053 3.54168 5.00002 3.54168Z" fill="#A5A5A5"/>
</svg>
