<svg width="15" height="15" viewBox="0 0 15 15" fill="none" xmlns="http://www.w3.org/2000/svg">
<path d="M9.85248 2.5C10.2006 2.50001 10.5419 2.59696 10.8381 2.77998C11.1343 2.963 11.3736 3.22487 11.5294 3.53625L12.3937 5.26438C12.5462 5.20188 12.6981 5.13875 12.8456 5.06562C12.994 4.99153 13.1657 4.9794 13.323 5.03191C13.4803 5.08442 13.6103 5.19727 13.6844 5.34563C13.7585 5.49398 13.7706 5.66569 13.7181 5.82299C13.6656 5.98029 13.5527 6.11028 13.4044 6.18438C13.0956 6.33813 12.9544 6.38562 12.9544 6.38562L13.5519 7.58125C13.6825 7.84188 13.75 8.12875 13.75 8.42V10C13.75 10.2638 13.6943 10.5246 13.5866 10.7654C13.4789 11.0063 13.3216 11.2216 13.125 11.3975V12.1875C13.125 12.4361 13.0262 12.6746 12.8504 12.8504C12.6746 13.0262 12.4361 13.125 12.1875 13.125C11.9388 13.125 11.7004 13.0262 11.5246 12.8504C11.3488 12.6746 11.25 12.4361 11.25 12.1875V11.875H3.74998V12.1875C3.74998 12.4361 3.65121 12.6746 3.4754 12.8504C3.29958 13.0262 3.06113 13.125 2.81248 13.125C2.56384 13.125 2.32539 13.0262 2.14957 12.8504C1.97376 12.6746 1.87498 12.4361 1.87498 12.1875V11.3975C1.49123 11.0538 1.24998 10.555 1.24998 10V8.42C1.2501 8.12904 1.31793 7.84209 1.44811 7.58187L2.04561 6.38562C1.89418 6.32297 1.74453 6.25606 1.59686 6.185C1.52319 6.14845 1.45746 6.09772 1.40343 6.03572C1.3494 5.97372 1.30814 5.90166 1.28202 5.82369C1.25589 5.74571 1.24541 5.66334 1.25117 5.58131C1.25694 5.49927 1.27883 5.41918 1.31561 5.34563C1.39122 5.19792 1.52194 5.08593 1.6795 5.03388C1.83705 4.98183 2.00877 4.99391 2.15748 5.0675C2.30498 5.13833 2.45457 5.20396 2.60623 5.26438L3.47061 3.53625C3.62635 3.22487 3.86571 2.963 4.16188 2.77998C4.45805 2.59696 4.79933 2.50001 5.14748 2.5H9.85248ZM11.7712 6.815C10.7087 7.15063 9.19686 7.5 7.49998 7.5C5.80311 7.5 4.29123 7.15 3.22873 6.815L2.56623 8.14C2.52268 8.22691 2.49999 8.32278 2.49998 8.42V10C2.49998 10.1658 2.56583 10.3247 2.68304 10.4419C2.80025 10.5592 2.95922 10.625 3.12498 10.625H11.875C12.0407 10.625 12.1997 10.5592 12.3169 10.4419C12.4341 10.3247 12.5 10.1658 12.5 10V8.42C12.4999 8.323 12.4772 8.22735 12.4337 8.14062L11.7712 6.815ZM4.68748 8.125C4.93613 8.125 5.17458 8.22377 5.3504 8.39959C5.52621 8.5754 5.62498 8.81386 5.62498 9.0625C5.62498 9.31114 5.52621 9.5496 5.3504 9.72541C5.17458 9.90123 4.93613 10 4.68748 10C4.43884 10 4.20039 9.90123 4.02457 9.72541C3.84876 9.5496 3.74998 9.31114 3.74998 9.0625C3.74998 8.81386 3.84876 8.5754 4.02457 8.39959C4.20039 8.22377 4.43884 8.125 4.68748 8.125ZM10.3125 8.125C10.5611 8.125 10.7996 8.22377 10.9754 8.39959C11.1512 8.5754 11.25 8.81386 11.25 9.0625C11.25 9.31114 11.1512 9.5496 10.9754 9.72541C10.7996 9.90123 10.5611 10 10.3125 10C10.0638 10 9.82539 9.90123 9.64957 9.72541C9.47376 9.5496 9.37498 9.31114 9.37498 9.0625C9.37498 8.81386 9.47376 8.5754 9.64957 8.39959C9.82539 8.22377 10.0638 8.125 10.3125 8.125ZM9.85248 3.75H5.14748C5.03145 3.75006 4.91772 3.78243 4.81903 3.84347C4.72035 3.90451 4.6406 3.99182 4.58873 4.09562L3.79498 5.68125C4.76248 5.97188 6.06624 6.25 7.49998 6.25C8.93373 6.25 10.2375 5.97188 11.2044 5.68125L10.4112 4.09562C10.3594 3.99182 10.2796 3.90451 10.1809 3.84347C10.0823 3.78243 9.96852 3.75006 9.85248 3.75Z" fill="#A5A5A5"/>
</svg>
