<svg width="53" height="83" viewBox="0 0 53 83" fill="none" xmlns="http://www.w3.org/2000/svg">
<path d="M9.53935 0C7.00936 0 4.58298 1.00504 2.79401 2.79401C1.00504 4.58298 0 7.00936 0 9.53935V72.6458C0 75.1758 1.00504 77.6022 2.79401 79.3911C4.58298 81.1801 7.00936 82.1852 9.53935 82.1852H43.294C45.824 82.1852 48.2503 81.1801 50.0393 79.3911C51.8283 77.6022 52.8333 75.1758 52.8333 72.6458V9.53935C52.8333 7.00936 51.8283 4.58298 50.0393 2.79401C48.2503 1.00504 45.824 0 43.294 0H9.53935ZM20.5463 64.5741H32.287C33.0655 64.5741 33.8121 64.8833 34.3625 65.4337C34.913 65.9842 35.2222 66.7308 35.2222 67.5092C35.2222 68.2877 34.913 69.0343 34.3625 69.5847C33.8121 70.1352 33.0655 70.4444 32.287 70.4444H20.5463C19.7678 70.4444 19.0213 70.1352 18.4708 69.5847C17.9203 69.0343 17.6111 68.2877 17.6111 67.5092C17.6111 66.7308 17.9203 65.9842 18.4708 65.4337C19.0213 64.8833 19.7678 64.5741 20.5463 64.5741Z" fill="white"/>
</svg>
