<svg width="24" height="24" viewBox="0 0 24 24" fill="none" xmlns="http://www.w3.org/2000/svg">
    <path
        d="M1.3335 19.6667C1.3335 18.2522 1.8954 16.8957 2.89559 15.8955C3.89579 14.8953 5.25234 14.3334 6.66683 14.3334H17.3335C18.748 14.3334 20.1045 14.8953 21.1047 15.8955C22.1049 16.8957 22.6668 18.2522 22.6668 19.6667C22.6668 20.374 22.3859 21.0522 21.8858 21.5523C21.3857 22.0524 20.7074 22.3334 20.0002 22.3334H4.00016C3.29292 22.3334 2.61464 22.0524 2.11454 21.5523C1.61445 21.0522 1.3335 20.374 1.3335 19.6667Z"
        stroke="white" stroke-width="2" stroke-linejoin="round" />
    <path
        d="M12 9C14.2091 9 16 7.20914 16 5C16 2.79086 14.2091 1 12 1C9.79086 1 8 2.79086 8 5C8 7.20914 9.79086 9 12 9Z"
        stroke="white" stroke-width="2" />
</svg>
