<svg width="27" height="27" viewBox="0 0 27 27" fill="none" xmlns="http://www.w3.org/2000/svg">
    <path
        d="M21.1416 19.2768L26.79 24.9239L24.9239 26.79L19.2768 21.1416C17.1756 22.826 14.5621 23.7421 11.8692 23.7383C5.31738 23.7383 0 18.4209 0 11.8692C0 5.31738 5.31738 0 11.8692 0C18.4209 0 23.7383 5.31738 23.7383 11.8692C23.7421 14.5621 22.826 17.1756 21.1416 19.2768ZM18.4961 18.2983C20.1694 16.5769 21.1041 14.2698 21.1007 11.8692C21.1007 6.76937 16.9689 2.63759 11.8692 2.63759C6.76937 2.63759 2.63759 6.76937 2.63759 11.8692C2.63759 16.9689 6.76937 21.1007 11.8692 21.1007C14.2698 21.1041 16.5769 20.1694 18.2983 18.4961L18.4961 18.2983Z"
        fill="black" />
</svg>
