<svg width="125" height="123" viewBox="0 0 125 123" fill="none" xmlns="http://www.w3.org/2000/svg">
<g filter="url(#filter0_d_982_1264)">
<ellipse cx="62.5" cy="57.5" rx="46.9189" ry="46.5" fill="#F3F3F3"/>
<path d="M109.095 52.0068C109.238 53.2122 109.335 54.4317 109.383 55.6635L108.964 55.6799C108.988 56.2837 109 56.8905 109 57.5C109 58.1095 108.988 58.7163 108.964 59.3201L109.383 59.3365C109.335 60.5683 109.238 61.7878 109.095 62.9932L108.679 62.9438C108.535 64.1549 108.344 65.3515 108.107 66.5319L108.518 66.6143C108.276 67.8203 107.987 69.0094 107.653 70.1798L107.251 70.0649C106.917 71.2349 106.537 72.3859 106.115 73.5161L106.507 73.6629C106.077 74.8123 105.603 75.9403 105.086 77.0448L104.706 76.8673C104.191 77.9675 103.634 79.0442 103.036 80.0953L103.4 80.3024C102.794 81.3671 102.148 82.4057 101.462 83.4162L101.115 83.181C100.434 84.1849 99.7141 85.1608 98.9574 86.1066L99.2845 86.3683C98.5202 87.3235 97.7189 88.2483 96.8827 89.1404L96.577 88.854C95.7483 89.7381 94.885 90.5899 93.9892 91.4073L94.2716 91.7167C93.369 92.5403 92.4337 93.3293 91.468 94.0816L91.2105 93.7511C90.2556 94.4949 89.2705 95.2024 88.2574 95.8716L88.4883 96.2211C87.47 96.8938 86.4237 97.528 85.3514 98.1218L85.1484 97.7553C84.0911 98.3408 83.0083 98.8865 81.9021 99.3905L82.0758 99.7717C80.9664 100.277 79.8338 100.741 78.6799 101.161L78.5366 100.767C77.4031 101.18 76.249 101.55 75.0761 101.876L75.1882 102.28C74.0159 102.605 72.8251 102.887 71.6176 103.123L71.5373 102.711C70.3556 102.942 69.1578 103.128 67.9457 103.268L67.9938 103.685C66.7881 103.824 65.5684 103.918 64.3366 103.965L64.3206 103.546C63.7166 103.569 63.1097 103.581 62.5 103.581C61.8903 103.581 61.2834 103.569 60.6794 103.546L60.6634 103.965C59.4316 103.918 58.2119 103.824 57.0062 103.685L57.0543 103.268C55.8422 103.128 54.6444 102.942 53.4627 102.711L53.3824 103.123C52.1749 102.887 50.9841 102.605 49.8118 102.28L49.9239 101.876C48.751 101.55 47.5968 101.18 46.4634 100.767L46.3201 101.161C45.1662 100.741 44.0335 100.277 42.9242 99.7717L43.0979 99.3905C41.9917 98.8865 40.9089 98.3408 39.8516 97.7553L39.6486 98.1218C38.5763 97.528 37.53 96.8938 36.5117 96.2211L36.7426 95.8716C35.7295 95.2024 34.7444 94.4949 33.7895 93.751L33.532 94.0815C32.5662 93.3293 31.631 92.5403 30.7284 91.7167L31.0108 91.4073C30.115 90.5899 29.2517 89.7381 28.423 88.854L28.1173 89.1404C27.2811 88.2483 26.4798 87.3235 25.7155 86.3683L26.0426 86.1066C25.2859 85.1608 24.5659 84.1849 23.8847 83.181L23.5381 83.4162C22.8524 82.4057 22.2057 81.3671 21.6001 80.3024L21.9642 80.0953C21.3663 79.0442 20.8088 77.9675 20.2939 76.8672L19.9145 77.0448C19.3975 75.9403 18.923 74.8123 18.493 73.6628L18.8854 73.5161C18.4626 72.3859 18.0833 71.2349 17.7495 70.0649L17.3467 70.1798C17.0127 69.0094 16.7238 67.8203 16.482 66.6143L16.8927 66.5319C16.656 65.3515 16.4648 64.1549 16.321 62.9438L15.905 62.9932C15.7619 61.7878 15.6653 60.5683 15.617 59.3365L16.0356 59.3201C16.0119 58.7163 16 58.1095 16 57.5C16 56.8905 16.0119 56.2837 16.0356 55.6799L15.617 55.6635C15.6653 54.4317 15.7619 53.2122 15.905 52.0068L16.321 52.0562C16.4648 50.8451 16.656 49.6485 16.8927 48.4681L16.482 48.3857C16.7238 47.1797 17.0127 45.9906 17.3467 44.8202L17.7495 44.9351C18.0833 43.7651 18.4626 42.6141 18.8854 41.4839L18.493 41.3371C18.923 40.1877 19.3975 39.0597 19.9145 37.9552L20.2939 38.1327C20.8088 37.0325 21.3663 35.9558 21.9642 34.9047L21.6001 34.6976C22.2057 33.6329 22.8524 32.5943 23.5381 31.5838L23.8847 31.819C24.5659 30.8151 25.2859 29.8392 26.0426 28.8934L25.7155 28.6317C26.4798 27.6765 27.2811 26.7517 28.1173 25.8596L28.423 26.146C29.2517 25.2619 30.115 24.4101 31.0108 23.5927L30.7284 23.2833C31.631 22.4597 32.5662 21.6707 33.532 20.9185L33.7895 21.249C34.7444 20.5051 35.7295 19.7976 36.7426 19.1284L36.5117 18.7789C37.53 18.1062 38.5763 17.472 39.6486 16.8782L39.8516 17.2447C40.9089 16.6592 41.9917 16.1135 43.0979 15.6095L42.9242 15.2283C44.0335 14.7228 45.1662 14.2591 46.3201 13.8389L46.4634 14.2325C47.5969 13.8199 48.751 13.4497 49.9239 13.1239L49.8118 12.7203C50.9841 12.3947 52.1749 12.1131 53.3824 11.8774L53.4627 12.2886C54.6444 12.0579 55.8422 11.8716 57.0543 11.7315L57.0062 11.3154C58.2119 11.176 59.4316 11.082 60.6634 11.035L60.6794 11.4536C61.2834 11.4305 61.8903 11.4189 62.5 11.4189C63.1097 11.4189 63.7166 11.4305 64.3206 11.4536L64.3366 11.035C65.5684 11.082 66.7881 11.176 67.9938 11.3154L67.9457 11.7315C69.1578 11.8716 70.3556 12.0579 71.5373 12.2886L71.6176 11.8774C72.8251 12.1131 74.0159 12.3947 75.1882 12.7203L75.0761 13.1239C76.249 13.4497 77.4032 13.8199 78.5366 14.2325L78.6799 13.8389C79.8338 14.2591 80.9665 14.7228 82.0758 15.2283L81.9021 15.6095C83.0083 16.1135 84.0911 16.6592 85.1484 17.2447L85.3514 16.8782C86.4237 17.472 87.47 18.1062 88.4883 18.7789L88.2574 19.1284C89.2705 19.7976 90.2556 20.5051 91.2105 21.249L91.468 20.9185C92.4338 21.6707 93.369 22.4597 94.2716 23.2833L93.9892 23.5927C94.885 24.4101 95.7483 25.262 96.577 26.1461L96.8827 25.8596C97.7189 26.7517 98.5202 27.6765 99.2845 28.6317L98.9574 28.8934C99.7141 29.8392 100.434 30.8151 101.115 31.819L101.462 31.5838C102.148 32.5943 102.794 33.6329 103.4 34.6976L103.036 34.9047C103.634 35.9558 104.191 37.0325 104.706 38.1327L105.086 37.9552C105.603 39.0597 106.077 40.1877 106.507 41.3371L106.115 41.4839C106.537 42.6141 106.917 43.7651 107.251 44.9351L107.653 44.8202C107.987 45.9906 108.276 47.1797 108.518 48.3857L108.107 48.4681C108.344 49.6485 108.535 50.8451 108.679 52.0562L109.095 52.0068Z" stroke="black" stroke-width="0.837838" stroke-dasharray="3.68 3.68"/>
</g>
<path d="M48 72C47.0833 72 46.2989 71.6738 45.6467 71.0216C44.9944 70.3694 44.6678 69.5844 44.6667 68.6666V48.6666C44.6667 47.75 44.9933 46.9655 45.6467 46.3133C46.3 45.6611 47.0844 45.3344 48 45.3333H53.25L56.3333 42H66.3333V45.3333H57.7917L54.75 48.6666H48V68.6666H74.6667V53.6666H78V68.6666C78 69.5833 77.6739 70.3683 77.0217 71.0216C76.3694 71.675 75.5844 72.0011 74.6667 72H48ZM74.6667 48.6666V45.3333H71.3333V42H74.6667V38.6666H78V42H81.3333V45.3333H78V48.6666H74.6667ZM61.3333 66.1666C63.4167 66.1666 65.1878 65.4377 66.6467 63.98C68.1056 62.5222 68.8344 60.7511 68.8333 58.6666C68.8322 56.5822 68.1033 54.8116 66.6467 53.355C65.19 51.8983 63.4189 51.1688 61.3333 51.1666C59.2478 51.1644 57.4772 51.8938 56.0217 53.355C54.5661 54.8161 53.8367 56.5866 53.8333 58.6666C53.83 60.7466 54.5594 62.5177 56.0217 63.98C57.4839 65.4422 59.2544 66.1711 61.3333 66.1666ZM61.3333 62.8333C60.1667 62.8333 59.1806 62.4305 58.375 61.625C57.5694 60.8194 57.1667 59.8333 57.1667 58.6666C57.1667 57.5 57.5694 56.5138 58.375 55.7083C59.1806 54.9027 60.1667 54.5 61.3333 54.5C62.5 54.5 63.4861 54.9027 64.2917 55.7083C65.0972 56.5138 65.5 57.5 65.5 58.6666C65.5 59.8333 65.0972 60.8194 64.2917 61.625C63.4861 62.4305 62.5 62.8333 61.3333 62.8333Z" fill="black"/>
<defs>
<filter id="filter0_d_982_1264" x="0.581081" y="0" width="123.838" height="123" filterUnits="userSpaceOnUse" color-interpolation-filters="sRGB">
<feFlood flood-opacity="0" result="BackgroundImageFix"/>
<feColorMatrix in="SourceAlpha" type="matrix" values="0 0 0 0 0 0 0 0 0 0 0 0 0 0 0 0 0 0 127 0" result="hardAlpha"/>
<feOffset dy="4"/>
<feGaussianBlur stdDeviation="7.5"/>
<feComposite in2="hardAlpha" operator="out"/>
<feColorMatrix type="matrix" values="0 0 0 0 0 0 0 0 0 0 0 0 0 0 0 0 0 0 0.16 0"/>
<feBlend mode="normal" in2="BackgroundImageFix" result="effect1_dropShadow_982_1264"/>
<feBlend mode="normal" in="SourceGraphic" in2="effect1_dropShadow_982_1264" result="shape"/>
</filter>
</defs>
</svg>
