<svg width="21" height="21" viewBox="0 0 21 21" fill="none" xmlns="http://www.w3.org/2000/svg">
<path d="M10.0235 20.1337C6.87874 20.1752 3.94856 18.8188 1.98667 16.4956C1.93079 16.4297 1.88871 16.3533 1.86297 16.2709C1.83722 16.1884 1.82832 16.1016 1.83679 16.0157C1.84526 15.9297 1.87094 15.8464 1.91229 15.7705C1.95365 15.6947 2.00983 15.628 2.0775 15.5743C2.21524 15.4634 2.39078 15.4105 2.56687 15.4268C2.74297 15.4431 2.90577 15.5275 3.02074 15.6618C3.87851 16.6734 4.95015 17.482 6.15833 18.0291C7.3665 18.5762 8.68108 18.8483 10.0072 18.8258C14.9217 18.7608 18.8549 14.8164 18.7915 10.0169C18.728 5.21728 14.6919 1.3783 9.77737 1.44328C8.43201 1.45578 7.10674 1.7711 5.89991 2.36583C4.69308 2.96057 3.63568 3.81945 2.80618 4.87873C2.69672 5.01748 2.53755 5.10817 2.36238 5.13158C2.18721 5.15499 2.0098 5.10929 1.86775 5.00415C1.7981 4.95319 1.7394 4.88876 1.69514 4.81467C1.65088 4.74058 1.62196 4.65836 1.6101 4.57287C1.59824 4.48739 1.60368 4.40039 1.62611 4.31706C1.64853 4.23372 1.68748 4.15574 1.74063 4.08775C3.6366 1.65247 6.56836 0.177587 9.75908 0.135404C15.4156 0.0606227 20.0574 4.47665 20.1304 9.99916C20.2034 15.5217 15.679 20.0589 10.0235 20.1337ZM3.07142 13.0649L0.329868 10.3939C0.0644416 10.1364 0.053904 9.71754 0.305497 9.45819L2.91433 6.78047C2.9755 6.71862 3.04831 6.66949 3.12854 6.63588C3.20878 6.60227 3.29487 6.58485 3.38186 6.58463C3.46885 6.58441 3.55503 6.60139 3.63543 6.63459C3.71584 6.66779 3.78889 6.71656 3.85038 6.77809C3.91373 6.83788 3.96462 6.90962 4.00011 6.98918C4.0356 7.06873 4.05499 7.15453 4.05717 7.24161C4.05934 7.32869 4.04425 7.41535 4.01278 7.49657C3.9813 7.5778 3.93405 7.65199 3.87376 7.71487L2.34735 9.28218L12.6564 9.14589C12.7434 9.14342 12.83 9.15817 12.9113 9.1893C12.9926 9.22043 13.0669 9.26732 13.1299 9.32728C13.193 9.38723 13.2436 9.45906 13.2788 9.53864C13.314 9.61822 13.3331 9.70398 13.335 9.79098C13.3398 10.1529 13.0437 10.4499 12.6738 10.4548L2.40565 10.5905L3.98411 12.1278C4.04731 12.1876 4.09807 12.2592 4.13347 12.3387C4.16887 12.4182 4.18822 12.5039 4.19039 12.5908C4.19256 12.6778 4.17752 12.7643 4.14613 12.8455C4.11474 12.9266 4.06762 13.0007 4.00748 13.0636C3.94624 13.1253 3.87338 13.1744 3.79311 13.2079C3.71284 13.2415 3.62673 13.2588 3.53973 13.2589C3.45274 13.259 3.36658 13.242 3.28621 13.2087C3.20584 13.1754 3.13284 13.1265 3.07142 13.0649Z" fill="white"/>
</svg>
