<svg width="34" height="34" viewBox="0 0 34 34" fill="none" xmlns="http://www.w3.org/2000/svg">
<g clip-path="url(#clip0_982_1251)">
<path d="M1.47925 16.5182C1.47847 19.3276 2.21253 22.0707 3.60832 24.4885L1.34576 32.7495L9.79983 30.5328C12.1381 31.8057 14.758 32.4727 17.4203 32.4729H17.4273C26.2161 32.4729 33.3704 25.3212 33.3742 16.5308C33.3759 12.2712 31.7186 8.26581 28.7074 5.25235C25.6968 2.23915 21.6928 0.578848 17.4267 0.576904C8.6368 0.576904 1.48301 7.72823 1.47938 16.5182" fill="url(#paint0_linear_982_1251)"/>
<path d="M0.909851 16.5131C0.908944 19.4235 1.66931 22.2648 3.11487 24.7692L0.771179 33.3263L9.52838 31.0301C11.9413 32.3457 14.6579 33.0393 17.4223 33.0404H17.4294C26.5336 33.0404 33.9449 25.6314 33.9488 16.5263C33.9503 12.1137 32.2334 7.96431 29.1147 4.84289C25.9956 1.72187 21.8484 0.0018144 17.4294 0C8.32375 0 0.91348 7.40794 0.909851 16.5131ZM6.12508 24.3378L5.7981 23.8188C4.42357 21.6332 3.69807 19.1076 3.6991 16.5142C3.70195 8.94616 9.86106 2.78899 17.4346 2.78899C21.1023 2.79055 24.5492 4.22029 27.1417 6.81437C29.7341 9.4087 31.1606 12.8574 31.1597 16.5253C31.1563 24.0933 24.997 30.2512 17.4294 30.2512H17.424C14.9599 30.2499 12.5433 29.5882 10.4357 28.3377L9.93416 28.0403L4.73746 29.4027L6.12508 24.3378Z" fill="#F3F3F3"/>
<path d="M13.3006 9.60951C12.9914 8.92224 12.6659 8.90837 12.3719 8.89632C12.1311 8.88595 11.8558 8.88673 11.5808 8.88673C11.3055 8.88673 10.8583 8.99028 10.4802 9.40306C10.1018 9.81622 9.03546 10.8147 9.03546 12.8454C9.03546 14.8761 10.5146 16.8387 10.7208 17.1144C10.9272 17.3895 13.5763 21.6902 17.7717 23.3446C21.2584 24.7196 21.968 24.4461 22.7247 24.3772C23.4816 24.3085 25.1669 23.379 25.5107 22.4152C25.8548 21.4515 25.8548 20.6254 25.7517 20.4528C25.6485 20.2808 25.3732 20.1775 24.9604 19.9712C24.5477 19.7648 22.5183 18.7661 22.14 18.6284C21.7615 18.4907 21.4864 18.4221 21.2111 18.8353C20.9359 19.248 20.1454 20.1775 19.9045 20.4528C19.6638 20.7287 19.4229 20.763 19.0103 20.5566C18.5972 20.3495 17.2679 19.9141 15.6908 18.5081C14.4638 17.414 13.6354 16.0629 13.3946 15.6496C13.1538 15.237 13.3688 15.0133 13.5757 14.8076C13.7612 14.6227 13.9886 14.3257 14.1952 14.0847C14.401 13.8437 14.4697 13.6717 14.6074 13.3964C14.7451 13.1209 14.6762 12.8798 14.5731 12.6734C14.4697 12.4669 13.6676 10.4256 13.3006 9.60951Z" fill="white"/>
</g>
<defs>
<linearGradient id="paint0_linear_982_1251" x1="1602.77" y1="3217.83" x2="1602.77" y2="0.576904" gradientUnits="userSpaceOnUse">
<stop stop-color="#1FAF38"/>
<stop offset="1" stop-color="#60D669"/>
</linearGradient>
<clipPath id="clip0_982_1251">
<rect width="33.1776" height="33.4368" fill="white" transform="translate(0.771179)"/>
</clipPath>
</defs>
</svg>
